<?xml version="1.0" encoding="utf-8" standalone="no"?>
<!DOCTYPE svg PUBLIC "-//W3C//DTD SVG 1.1//EN"
  "http://www.w3.org/Graphics/SVG/1.1/DTD/svg11.dtd">
<svg xmlns:xlink="http://www.w3.org/1999/xlink" width="864pt" height="331.2pt" viewBox="0 0 864 331.2" xmlns="http://www.w3.org/2000/svg" version="1.1">
 <metadata>
  <rdf:RDF xmlns:dc="http://purl.org/dc/elements/1.1/" xmlns:cc="http://creativecommons.org/ns#" xmlns:rdf="http://www.w3.org/1999/02/22-rdf-syntax-ns#">
   <cc:Work>
    <dc:type rdf:resource="http://purl.org/dc/dcmitype/StillImage"/>
    <dc:date>2026-09-03T08:48:14.018143</dc:date>
    <dc:format>image/svg+xml</dc:format>
    <dc:creator>
     <cc:Agent>
      <dc:title>Matplotlib v3.10.8, https://matplotlib.org/</dc:title>
     </cc:Agent>
    </dc:creator>
   </cc:Work>
  </rdf:RDF>
 </metadata>
 <defs>
  <style type="text/css">*{stroke-linejoin: round; stroke-linecap: butt}</style>
 </defs>
 <g id="figure_1">
  <g id="patch_1">
   <path d="M 0 331.2 
L 864 331.2 
L 864 0 
L 0 0 
z
" style="fill: #ffffff"/>
  </g>
  <g id="axes_1">
   <g id="patch_2">
    <path d="M 55.91 279.503624 
L 423.63 279.503624 
L 423.63 44.736 
L 55.91 44.736 
z
" style="fill: #ffffff"/>
   </g>
   <g id="matplotlib.axis_1">
    <g id="xtick_1">
     <g id="line2d_1">
      <defs>
       <path id="mfd6a90b5c5" d="M 0 0 
L 0 3.5 
" style="stroke: #000000; stroke-width: 0.8"/>
      </defs>
      <g>
       <use xlink:href="#mfd6a90b5c5" x="72.624545" y="279.503624" style="stroke: #000000; stroke-width: 0.8"/>
      </g>
     </g>
     <g id="text_1">
      <!-- 5 -->
      <g transform="translate(68.807045 295.621749) scale(0.12 -0.12)">
       <defs>
        <path id="DejaVuSans-35" d="M 691 4666 
L 3169 4666 
L 3169 4134 
L 1269 4134 
L 1269 2991 
Q 1406 3038 1543 3061 
Q 1681 3084 1819 3084 
Q 2600 3084 3056 2656 
Q 3513 2228 3513 1497 
Q 3513 744 3044 326 
Q 2575 -91 1722 -91 
Q 1428 -91 1123 -41 
Q 819 9 494 109 
L 494 744 
Q 775 591 1075 516 
Q 1375 441 1709 441 
Q 2250 441 2565 725 
Q 2881 1009 2881 1497 
Q 2881 1984 2565 2268 
Q 2250 2553 1709 2553 
Q 1456 2553 1204 2497 
Q 953 2441 691 2322 
L 691 4666 
z
" transform="scale(0.015625)"/>
       </defs>
       <use xlink:href="#DejaVuSans-35"/>
      </g>
     </g>
    </g>
    <g id="xtick_2">
     <g id="line2d_2">
      <g>
       <use xlink:href="#mfd6a90b5c5" x="239.77" y="279.503624" style="stroke: #000000; stroke-width: 0.8"/>
      </g>
     </g>
     <g id="text_2">
      <!-- 6 -->
      <g transform="translate(235.9525 295.621749) scale(0.12 -0.12)">
       <defs>
        <path id="DejaVuSans-36" d="M 2113 2584 
Q 1688 2584 1439 2293 
Q 1191 2003 1191 1497 
Q 1191 994 1439 701 
Q 1688 409 2113 409 
Q 2538 409 2786 701 
Q 3034 994 3034 1497 
Q 3034 2003 2786 2293 
Q 2538 2584 2113 2584 
z
M 3366 4563 
L 3366 3988 
Q 3128 4100 2886 4159 
Q 2644 4219 2406 4219 
Q 1781 4219 1451 3797 
Q 1122 3375 1075 2522 
Q 1259 2794 1537 2939 
Q 1816 3084 2150 3084 
Q 2853 3084 3261 2657 
Q 3669 2231 3669 1497 
Q 3669 778 3244 343 
Q 2819 -91 2113 -91 
Q 1303 -91 875 529 
Q 447 1150 447 2328 
Q 447 3434 972 4092 
Q 1497 4750 2381 4750 
Q 2619 4750 2861 4703 
Q 3103 4656 3366 4563 
z
" transform="scale(0.015625)"/>
       </defs>
       <use xlink:href="#DejaVuSans-36"/>
      </g>
     </g>
    </g>
    <g id="xtick_3">
     <g id="line2d_3">
      <g>
       <use xlink:href="#mfd6a90b5c5" x="406.915455" y="279.503624" style="stroke: #000000; stroke-width: 0.8"/>
      </g>
     </g>
     <g id="text_3">
      <!-- 7 -->
      <g transform="translate(403.097955 295.621749) scale(0.12 -0.12)">
       <defs>
        <path id="DejaVuSans-37" d="M 525 4666 
L 3525 4666 
L 3525 4397 
L 1831 0 
L 1172 0 
L 2766 4134 
L 525 4134 
L 525 4666 
z
" transform="scale(0.015625)"/>
       </defs>
       <use xlink:href="#DejaVuSans-37"/>
      </g>
     </g>
    </g>
    <g id="text_4">
     <!-- truth-table rows observed  (m of 9) -->
     <g transform="translate(134.212187 311.235499) scale(0.12 -0.12)">
      <defs>
       <path id="DejaVuSans-74" d="M 1172 4494 
L 1172 3500 
L 2356 3500 
L 2356 3053 
L 1172 3053 
L 1172 1153 
Q 1172 725 1289 603 
Q 1406 481 1766 481 
L 2356 481 
L 2356 0 
L 1766 0 
Q 1100 0 847 248 
Q 594 497 594 1153 
L 594 3053 
L 172 3053 
L 172 3500 
L 594 3500 
L 594 4494 
L 1172 4494 
z
" transform="scale(0.015625)"/>
       <path id="DejaVuSans-72" d="M 2631 2963 
Q 2534 3019 2420 3045 
Q 2306 3072 2169 3072 
Q 1681 3072 1420 2755 
Q 1159 2438 1159 1844 
L 1159 0 
L 581 0 
L 581 3500 
L 1159 3500 
L 1159 2956 
Q 1341 3275 1631 3429 
Q 1922 3584 2338 3584 
Q 2397 3584 2469 3576 
Q 2541 3569 2628 3553 
L 2631 2963 
z
" transform="scale(0.015625)"/>
       <path id="DejaVuSans-75" d="M 544 1381 
L 544 3500 
L 1119 3500 
L 1119 1403 
Q 1119 906 1312 657 
Q 1506 409 1894 409 
Q 2359 409 2629 706 
Q 2900 1003 2900 1516 
L 2900 3500 
L 3475 3500 
L 3475 0 
L 2900 0 
L 2900 538 
Q 2691 219 2414 64 
Q 2138 -91 1772 -91 
Q 1169 -91 856 284 
Q 544 659 544 1381 
z
M 1991 3584 
L 1991 3584 
z
" transform="scale(0.015625)"/>
       <path id="DejaVuSans-68" d="M 3513 2113 
L 3513 0 
L 2938 0 
L 2938 2094 
Q 2938 2591 2744 2837 
Q 2550 3084 2163 3084 
Q 1697 3084 1428 2787 
Q 1159 2491 1159 1978 
L 1159 0 
L 581 0 
L 581 4863 
L 1159 4863 
L 1159 2956 
Q 1366 3272 1645 3428 
Q 1925 3584 2291 3584 
Q 2894 3584 3203 3211 
Q 3513 2838 3513 2113 
z
" transform="scale(0.015625)"/>
       <path id="DejaVuSans-2d" d="M 313 2009 
L 1997 2009 
L 1997 1497 
L 313 1497 
L 313 2009 
z
" transform="scale(0.015625)"/>
       <path id="DejaVuSans-61" d="M 2194 1759 
Q 1497 1759 1228 1600 
Q 959 1441 959 1056 
Q 959 750 1161 570 
Q 1363 391 1709 391 
Q 2188 391 2477 730 
Q 2766 1069 2766 1631 
L 2766 1759 
L 2194 1759 
z
M 3341 1997 
L 3341 0 
L 2766 0 
L 2766 531 
Q 2569 213 2275 61 
Q 1981 -91 1556 -91 
Q 1019 -91 701 211 
Q 384 513 384 1019 
Q 384 1609 779 1909 
Q 1175 2209 1959 2209 
L 2766 2209 
L 2766 2266 
Q 2766 2663 2505 2880 
Q 2244 3097 1772 3097 
Q 1472 3097 1187 3025 
Q 903 2953 641 2809 
L 641 3341 
Q 956 3463 1253 3523 
Q 1550 3584 1831 3584 
Q 2591 3584 2966 3190 
Q 3341 2797 3341 1997 
z
" transform="scale(0.015625)"/>
       <path id="DejaVuSans-62" d="M 3116 1747 
Q 3116 2381 2855 2742 
Q 2594 3103 2138 3103 
Q 1681 3103 1420 2742 
Q 1159 2381 1159 1747 
Q 1159 1113 1420 752 
Q 1681 391 2138 391 
Q 2594 391 2855 752 
Q 3116 1113 3116 1747 
z
M 1159 2969 
Q 1341 3281 1617 3432 
Q 1894 3584 2278 3584 
Q 2916 3584 3314 3078 
Q 3713 2572 3713 1747 
Q 3713 922 3314 415 
Q 2916 -91 2278 -91 
Q 1894 -91 1617 61 
Q 1341 213 1159 525 
L 1159 0 
L 581 0 
L 581 4863 
L 1159 4863 
L 1159 2969 
z
" transform="scale(0.015625)"/>
       <path id="DejaVuSans-6c" d="M 603 4863 
L 1178 4863 
L 1178 0 
L 603 0 
L 603 4863 
z
" transform="scale(0.015625)"/>
       <path id="DejaVuSans-65" d="M 3597 1894 
L 3597 1613 
L 953 1613 
Q 991 1019 1311 708 
Q 1631 397 2203 397 
Q 2534 397 2845 478 
Q 3156 559 3463 722 
L 3463 178 
Q 3153 47 2828 -22 
Q 2503 -91 2169 -91 
Q 1331 -91 842 396 
Q 353 884 353 1716 
Q 353 2575 817 3079 
Q 1281 3584 2069 3584 
Q 2775 3584 3186 3129 
Q 3597 2675 3597 1894 
z
M 3022 2063 
Q 3016 2534 2758 2815 
Q 2500 3097 2075 3097 
Q 1594 3097 1305 2825 
Q 1016 2553 972 2059 
L 3022 2063 
z
" transform="scale(0.015625)"/>
       <path id="DejaVuSans-20" transform="scale(0.015625)"/>
       <path id="DejaVuSans-6f" d="M 1959 3097 
Q 1497 3097 1228 2736 
Q 959 2375 959 1747 
Q 959 1119 1226 758 
Q 1494 397 1959 397 
Q 2419 397 2687 759 
Q 2956 1122 2956 1747 
Q 2956 2369 2687 2733 
Q 2419 3097 1959 3097 
z
M 1959 3584 
Q 2709 3584 3137 3096 
Q 3566 2609 3566 1747 
Q 3566 888 3137 398 
Q 2709 -91 1959 -91 
Q 1206 -91 779 398 
Q 353 888 353 1747 
Q 353 2609 779 3096 
Q 1206 3584 1959 3584 
z
" transform="scale(0.015625)"/>
       <path id="DejaVuSans-77" d="M 269 3500 
L 844 3500 
L 1563 769 
L 2278 3500 
L 2956 3500 
L 3675 769 
L 4391 3500 
L 4966 3500 
L 4050 0 
L 3372 0 
L 2619 2869 
L 1863 0 
L 1184 0 
L 269 3500 
z
" transform="scale(0.015625)"/>
       <path id="DejaVuSans-73" d="M 2834 3397 
L 2834 2853 
Q 2591 2978 2328 3040 
Q 2066 3103 1784 3103 
Q 1356 3103 1142 2972 
Q 928 2841 928 2578 
Q 928 2378 1081 2264 
Q 1234 2150 1697 2047 
L 1894 2003 
Q 2506 1872 2764 1633 
Q 3022 1394 3022 966 
Q 3022 478 2636 193 
Q 2250 -91 1575 -91 
Q 1294 -91 989 -36 
Q 684 19 347 128 
L 347 722 
Q 666 556 975 473 
Q 1284 391 1588 391 
Q 1994 391 2212 530 
Q 2431 669 2431 922 
Q 2431 1156 2273 1281 
Q 2116 1406 1581 1522 
L 1381 1569 
Q 847 1681 609 1914 
Q 372 2147 372 2553 
Q 372 3047 722 3315 
Q 1072 3584 1716 3584 
Q 2034 3584 2315 3537 
Q 2597 3491 2834 3397 
z
" transform="scale(0.015625)"/>
       <path id="DejaVuSans-76" d="M 191 3500 
L 800 3500 
L 1894 563 
L 2988 3500 
L 3597 3500 
L 2284 0 
L 1503 0 
L 191 3500 
z
" transform="scale(0.015625)"/>
       <path id="DejaVuSans-64" d="M 2906 2969 
L 2906 4863 
L 3481 4863 
L 3481 0 
L 2906 0 
L 2906 525 
Q 2725 213 2448 61 
Q 2172 -91 1784 -91 
Q 1150 -91 751 415 
Q 353 922 353 1747 
Q 353 2572 751 3078 
Q 1150 3584 1784 3584 
Q 2172 3584 2448 3432 
Q 2725 3281 2906 2969 
z
M 947 1747 
Q 947 1113 1208 752 
Q 1469 391 1925 391 
Q 2381 391 2643 752 
Q 2906 1113 2906 1747 
Q 2906 2381 2643 2742 
Q 2381 3103 1925 3103 
Q 1469 3103 1208 2742 
Q 947 2381 947 1747 
z
" transform="scale(0.015625)"/>
       <path id="DejaVuSans-28" d="M 1984 4856 
Q 1566 4138 1362 3434 
Q 1159 2731 1159 2009 
Q 1159 1288 1364 580 
Q 1569 -128 1984 -844 
L 1484 -844 
Q 1016 -109 783 600 
Q 550 1309 550 2009 
Q 550 2706 781 3412 
Q 1013 4119 1484 4856 
L 1984 4856 
z
" transform="scale(0.015625)"/>
       <path id="DejaVuSans-6d" d="M 3328 2828 
Q 3544 3216 3844 3400 
Q 4144 3584 4550 3584 
Q 5097 3584 5394 3201 
Q 5691 2819 5691 2113 
L 5691 0 
L 5113 0 
L 5113 2094 
Q 5113 2597 4934 2840 
Q 4756 3084 4391 3084 
Q 3944 3084 3684 2787 
Q 3425 2491 3425 1978 
L 3425 0 
L 2847 0 
L 2847 2094 
Q 2847 2600 2669 2842 
Q 2491 3084 2119 3084 
Q 1678 3084 1418 2786 
Q 1159 2488 1159 1978 
L 1159 0 
L 581 0 
L 581 3500 
L 1159 3500 
L 1159 2956 
Q 1356 3278 1631 3431 
Q 1906 3584 2284 3584 
Q 2666 3584 2933 3390 
Q 3200 3197 3328 2828 
z
" transform="scale(0.015625)"/>
       <path id="DejaVuSans-66" d="M 2375 4863 
L 2375 4384 
L 1825 4384 
Q 1516 4384 1395 4259 
Q 1275 4134 1275 3809 
L 1275 3500 
L 2222 3500 
L 2222 3053 
L 1275 3053 
L 1275 0 
L 697 0 
L 697 3053 
L 147 3053 
L 147 3500 
L 697 3500 
L 697 3744 
Q 697 4328 969 4595 
Q 1241 4863 1831 4863 
L 2375 4863 
z
" transform="scale(0.015625)"/>
       <path id="DejaVuSans-39" d="M 703 97 
L 703 672 
Q 941 559 1184 500 
Q 1428 441 1663 441 
Q 2288 441 2617 861 
Q 2947 1281 2994 2138 
Q 2813 1869 2534 1725 
Q 2256 1581 1919 1581 
Q 1219 1581 811 2004 
Q 403 2428 403 3163 
Q 403 3881 828 4315 
Q 1253 4750 1959 4750 
Q 2769 4750 3195 4129 
Q 3622 3509 3622 2328 
Q 3622 1225 3098 567 
Q 2575 -91 1691 -91 
Q 1453 -91 1209 -44 
Q 966 3 703 97 
z
M 1959 2075 
Q 2384 2075 2632 2365 
Q 2881 2656 2881 3163 
Q 2881 3666 2632 3958 
Q 2384 4250 1959 4250 
Q 1534 4250 1286 3958 
Q 1038 3666 1038 3163 
Q 1038 2656 1286 2365 
Q 1534 2075 1959 2075 
z
" transform="scale(0.015625)"/>
       <path id="DejaVuSans-29" d="M 513 4856 
L 1013 4856 
Q 1481 4119 1714 3412 
Q 1947 2706 1947 2009 
Q 1947 1309 1714 600 
Q 1481 -109 1013 -844 
L 513 -844 
Q 928 -128 1133 580 
Q 1338 1288 1338 2009 
Q 1338 2731 1133 3434 
Q 928 4138 513 4856 
z
" transform="scale(0.015625)"/>
      </defs>
      <use xlink:href="#DejaVuSans-74"/>
      <use xlink:href="#DejaVuSans-72" transform="translate(39.208984 0)"/>
      <use xlink:href="#DejaVuSans-75" transform="translate(80.322266 0)"/>
      <use xlink:href="#DejaVuSans-74" transform="translate(143.701172 0)"/>
      <use xlink:href="#DejaVuSans-68" transform="translate(182.910156 0)"/>
      <use xlink:href="#DejaVuSans-2d" transform="translate(246.289062 0)"/>
      <use xlink:href="#DejaVuSans-74" transform="translate(282.373047 0)"/>
      <use xlink:href="#DejaVuSans-61" transform="translate(321.582031 0)"/>
      <use xlink:href="#DejaVuSans-62" transform="translate(382.861328 0)"/>
      <use xlink:href="#DejaVuSans-6c" transform="translate(446.337891 0)"/>
      <use xlink:href="#DejaVuSans-65" transform="translate(474.121094 0)"/>
      <use xlink:href="#DejaVuSans-20" transform="translate(535.644531 0)"/>
      <use xlink:href="#DejaVuSans-72" transform="translate(567.431641 0)"/>
      <use xlink:href="#DejaVuSans-6f" transform="translate(606.294922 0)"/>
      <use xlink:href="#DejaVuSans-77" transform="translate(667.476562 0)"/>
      <use xlink:href="#DejaVuSans-73" transform="translate(749.263672 0)"/>
      <use xlink:href="#DejaVuSans-20" transform="translate(801.363281 0)"/>
      <use xlink:href="#DejaVuSans-6f" transform="translate(833.150391 0)"/>
      <use xlink:href="#DejaVuSans-62" transform="translate(894.332031 0)"/>
      <use xlink:href="#DejaVuSans-73" transform="translate(957.808594 0)"/>
      <use xlink:href="#DejaVuSans-65" transform="translate(1009.908203 0)"/>
      <use xlink:href="#DejaVuSans-72" transform="translate(1071.431641 0)"/>
      <use xlink:href="#DejaVuSans-76" transform="translate(1112.544922 0)"/>
      <use xlink:href="#DejaVuSans-65" transform="translate(1171.724609 0)"/>
      <use xlink:href="#DejaVuSans-64" transform="translate(1233.248047 0)"/>
      <use xlink:href="#DejaVuSans-20" transform="translate(1296.724609 0)"/>
      <use xlink:href="#DejaVuSans-20" transform="translate(1328.511719 0)"/>
      <use xlink:href="#DejaVuSans-28" transform="translate(1360.298828 0)"/>
      <use xlink:href="#DejaVuSans-6d" transform="translate(1399.3125 0)"/>
      <use xlink:href="#DejaVuSans-20" transform="translate(1496.724609 0)"/>
      <use xlink:href="#DejaVuSans-6f" transform="translate(1528.511719 0)"/>
      <use xlink:href="#DejaVuSans-66" transform="translate(1589.693359 0)"/>
      <use xlink:href="#DejaVuSans-20" transform="translate(1624.898438 0)"/>
      <use xlink:href="#DejaVuSans-39" transform="translate(1656.685547 0)"/>
      <use xlink:href="#DejaVuSans-29" transform="translate(1720.308594 0)"/>
     </g>
    </g>
   </g>
   <g id="matplotlib.axis_2">
    <g id="ytick_1">
     <g id="line2d_4">
      <defs>
       <path id="m52a121a455" d="M 0 0 
L -3.5 0 
" style="stroke: #000000; stroke-width: 0.8"/>
      </defs>
      <g>
       <use xlink:href="#m52a121a455" x="55.91" y="274.625775" style="stroke: #000000; stroke-width: 0.8"/>
      </g>
     </g>
     <g id="text_5">
      <!-- 0.3 -->
      <g transform="translate(29.82625 279.184838) scale(0.12 -0.12)">
       <defs>
        <path id="DejaVuSans-30" d="M 2034 4250 
Q 1547 4250 1301 3770 
Q 1056 3291 1056 2328 
Q 1056 1369 1301 889 
Q 1547 409 2034 409 
Q 2525 409 2770 889 
Q 3016 1369 3016 2328 
Q 3016 3291 2770 3770 
Q 2525 4250 2034 4250 
z
M 2034 4750 
Q 2819 4750 3233 4129 
Q 3647 3509 3647 2328 
Q 3647 1150 3233 529 
Q 2819 -91 2034 -91 
Q 1250 -91 836 529 
Q 422 1150 422 2328 
Q 422 3509 836 4129 
Q 1250 4750 2034 4750 
z
" transform="scale(0.015625)"/>
        <path id="DejaVuSans-2e" d="M 684 794 
L 1344 794 
L 1344 0 
L 684 0 
L 684 794 
z
" transform="scale(0.015625)"/>
        <path id="DejaVuSans-33" d="M 2597 2516 
Q 3050 2419 3304 2112 
Q 3559 1806 3559 1356 
Q 3559 666 3084 287 
Q 2609 -91 1734 -91 
Q 1441 -91 1130 -33 
Q 819 25 488 141 
L 488 750 
Q 750 597 1062 519 
Q 1375 441 1716 441 
Q 2309 441 2620 675 
Q 2931 909 2931 1356 
Q 2931 1769 2642 2001 
Q 2353 2234 1838 2234 
L 1294 2234 
L 1294 2753 
L 1863 2753 
Q 2328 2753 2575 2939 
Q 2822 3125 2822 3475 
Q 2822 3834 2567 4026 
Q 2313 4219 1838 4219 
Q 1578 4219 1281 4162 
Q 984 4106 628 3988 
L 628 4550 
Q 988 4650 1302 4700 
Q 1616 4750 1894 4750 
Q 2613 4750 3031 4423 
Q 3450 4097 3450 3541 
Q 3450 3153 3228 2886 
Q 3006 2619 2597 2516 
z
" transform="scale(0.015625)"/>
       </defs>
       <use xlink:href="#DejaVuSans-30"/>
       <use xlink:href="#DejaVuSans-2e" transform="translate(63.623047 0)"/>
       <use xlink:href="#DejaVuSans-33" transform="translate(95.410156 0)"/>
      </g>
     </g>
    </g>
    <g id="ytick_2">
     <g id="line2d_5">
      <g>
       <use xlink:href="#m52a121a455" x="55.91" y="234.221021" style="stroke: #000000; stroke-width: 0.8"/>
      </g>
     </g>
     <g id="text_6">
      <!-- 0.4 -->
      <g transform="translate(29.82625 238.780084) scale(0.12 -0.12)">
       <defs>
        <path id="DejaVuSans-34" d="M 2419 4116 
L 825 1625 
L 2419 1625 
L 2419 4116 
z
M 2253 4666 
L 3047 4666 
L 3047 1625 
L 3713 1625 
L 3713 1100 
L 3047 1100 
L 3047 0 
L 2419 0 
L 2419 1100 
L 313 1100 
L 313 1709 
L 2253 4666 
z
" transform="scale(0.015625)"/>
       </defs>
       <use xlink:href="#DejaVuSans-30"/>
       <use xlink:href="#DejaVuSans-2e" transform="translate(63.623047 0)"/>
       <use xlink:href="#DejaVuSans-34" transform="translate(95.410156 0)"/>
      </g>
     </g>
    </g>
    <g id="ytick_3">
     <g id="line2d_6">
      <g>
       <use xlink:href="#m52a121a455" x="55.91" y="193.816268" style="stroke: #000000; stroke-width: 0.8"/>
      </g>
     </g>
     <g id="text_7">
      <!-- 0.5 -->
      <g transform="translate(29.82625 198.37533) scale(0.12 -0.12)">
       <use xlink:href="#DejaVuSans-30"/>
       <use xlink:href="#DejaVuSans-2e" transform="translate(63.623047 0)"/>
       <use xlink:href="#DejaVuSans-35" transform="translate(95.410156 0)"/>
      </g>
     </g>
    </g>
    <g id="ytick_4">
     <g id="line2d_7">
      <g>
       <use xlink:href="#m52a121a455" x="55.91" y="153.411514" style="stroke: #000000; stroke-width: 0.8"/>
      </g>
     </g>
     <g id="text_8">
      <!-- 0.6 -->
      <g transform="translate(29.82625 157.970576) scale(0.12 -0.12)">
       <use xlink:href="#DejaVuSans-30"/>
       <use xlink:href="#DejaVuSans-2e" transform="translate(63.623047 0)"/>
       <use xlink:href="#DejaVuSans-36" transform="translate(95.410156 0)"/>
      </g>
     </g>
    </g>
    <g id="ytick_5">
     <g id="line2d_8">
      <g>
       <use xlink:href="#m52a121a455" x="55.91" y="113.00676" style="stroke: #000000; stroke-width: 0.8"/>
      </g>
     </g>
     <g id="text_9">
      <!-- 0.7 -->
      <g transform="translate(29.82625 117.565822) scale(0.12 -0.12)">
       <use xlink:href="#DejaVuSans-30"/>
       <use xlink:href="#DejaVuSans-2e" transform="translate(63.623047 0)"/>
       <use xlink:href="#DejaVuSans-37" transform="translate(95.410156 0)"/>
      </g>
     </g>
    </g>
    <g id="ytick_6">
     <g id="line2d_9">
      <g>
       <use xlink:href="#m52a121a455" x="55.91" y="72.602006" style="stroke: #000000; stroke-width: 0.8"/>
      </g>
     </g>
     <g id="text_10">
      <!-- 0.8 -->
      <g transform="translate(29.82625 77.161068) scale(0.12 -0.12)">
       <defs>
        <path id="DejaVuSans-38" d="M 2034 2216 
Q 1584 2216 1326 1975 
Q 1069 1734 1069 1313 
Q 1069 891 1326 650 
Q 1584 409 2034 409 
Q 2484 409 2743 651 
Q 3003 894 3003 1313 
Q 3003 1734 2745 1975 
Q 2488 2216 2034 2216 
z
M 1403 2484 
Q 997 2584 770 2862 
Q 544 3141 544 3541 
Q 544 4100 942 4425 
Q 1341 4750 2034 4750 
Q 2731 4750 3128 4425 
Q 3525 4100 3525 3541 
Q 3525 3141 3298 2862 
Q 3072 2584 2669 2484 
Q 3125 2378 3379 2068 
Q 3634 1759 3634 1313 
Q 3634 634 3220 271 
Q 2806 -91 2034 -91 
Q 1263 -91 848 271 
Q 434 634 434 1313 
Q 434 1759 690 2068 
Q 947 2378 1403 2484 
z
M 1172 3481 
Q 1172 3119 1398 2916 
Q 1625 2713 2034 2713 
Q 2441 2713 2670 2916 
Q 2900 3119 2900 3481 
Q 2900 3844 2670 4047 
Q 2441 4250 2034 4250 
Q 1625 4250 1398 4047 
Q 1172 3844 1172 3481 
z
" transform="scale(0.015625)"/>
       </defs>
       <use xlink:href="#DejaVuSans-30"/>
       <use xlink:href="#DejaVuSans-2e" transform="translate(63.623047 0)"/>
       <use xlink:href="#DejaVuSans-38" transform="translate(95.410156 0)"/>
      </g>
     </g>
    </g>
    <g id="text_11">
     <!-- held-out row recovery -->
     <g transform="translate(23.330625 228.171374) rotate(-90) scale(0.12 -0.12)">
      <defs>
       <path id="DejaVuSans-63" d="M 3122 3366 
L 3122 2828 
Q 2878 2963 2633 3030 
Q 2388 3097 2138 3097 
Q 1578 3097 1268 2742 
Q 959 2388 959 1747 
Q 959 1106 1268 751 
Q 1578 397 2138 397 
Q 2388 397 2633 464 
Q 2878 531 3122 666 
L 3122 134 
Q 2881 22 2623 -34 
Q 2366 -91 2075 -91 
Q 1284 -91 818 406 
Q 353 903 353 1747 
Q 353 2603 823 3093 
Q 1294 3584 2113 3584 
Q 2378 3584 2631 3529 
Q 2884 3475 3122 3366 
z
" transform="scale(0.015625)"/>
       <path id="DejaVuSans-79" d="M 2059 -325 
Q 1816 -950 1584 -1140 
Q 1353 -1331 966 -1331 
L 506 -1331 
L 506 -850 
L 844 -850 
Q 1081 -850 1212 -737 
Q 1344 -625 1503 -206 
L 1606 56 
L 191 3500 
L 800 3500 
L 1894 763 
L 2988 3500 
L 3597 3500 
L 2059 -325 
z
" transform="scale(0.015625)"/>
      </defs>
      <use xlink:href="#DejaVuSans-68"/>
      <use xlink:href="#DejaVuSans-65" transform="translate(63.378906 0)"/>
      <use xlink:href="#DejaVuSans-6c" transform="translate(124.902344 0)"/>
      <use xlink:href="#DejaVuSans-64" transform="translate(152.685547 0)"/>
      <use xlink:href="#DejaVuSans-2d" transform="translate(216.162109 0)"/>
      <use xlink:href="#DejaVuSans-6f" transform="translate(254.121094 0)"/>
      <use xlink:href="#DejaVuSans-75" transform="translate(315.302734 0)"/>
      <use xlink:href="#DejaVuSans-74" transform="translate(378.681641 0)"/>
      <use xlink:href="#DejaVuSans-20" transform="translate(417.890625 0)"/>
      <use xlink:href="#DejaVuSans-72" transform="translate(449.677734 0)"/>
      <use xlink:href="#DejaVuSans-6f" transform="translate(488.541016 0)"/>
      <use xlink:href="#DejaVuSans-77" transform="translate(549.722656 0)"/>
      <use xlink:href="#DejaVuSans-20" transform="translate(631.509766 0)"/>
      <use xlink:href="#DejaVuSans-72" transform="translate(663.296875 0)"/>
      <use xlink:href="#DejaVuSans-65" transform="translate(702.160156 0)"/>
      <use xlink:href="#DejaVuSans-63" transform="translate(763.683594 0)"/>
      <use xlink:href="#DejaVuSans-6f" transform="translate(818.664062 0)"/>
      <use xlink:href="#DejaVuSans-76" transform="translate(879.845703 0)"/>
      <use xlink:href="#DejaVuSans-65" transform="translate(939.025391 0)"/>
      <use xlink:href="#DejaVuSans-72" transform="translate(1000.548828 0)"/>
      <use xlink:href="#DejaVuSans-79" transform="translate(1041.662109 0)"/>
     </g>
    </g>
   </g>
   <g id="LineCollection_1">
    <path d="M 72.624545 219.353206 
L 72.624545 197.909482 
" clip-path="url(#p8fe24e8c83)" style="fill: none; stroke: #888888; stroke-width: 1.6"/>
    <path d="M 239.77 211.52424 
L 239.77 189.576546 
" clip-path="url(#p8fe24e8c83)" style="fill: none; stroke: #888888; stroke-width: 1.6"/>
    <path d="M 406.915455 201.755745 
L 406.915455 169.041476 
" clip-path="url(#p8fe24e8c83)" style="fill: none; stroke: #888888; stroke-width: 1.6"/>
   </g>
   <g id="line2d_10">
    <defs>
     <path id="m6d44e0fd5c" d="M 3 0 
L -3 -0 
" style="stroke: #888888"/>
    </defs>
    <g clip-path="url(#p8fe24e8c83)">
     <use xlink:href="#m6d44e0fd5c" x="72.624545" y="219.353206" style="fill: #888888; stroke: #888888"/>
     <use xlink:href="#m6d44e0fd5c" x="239.77" y="211.52424" style="fill: #888888; stroke: #888888"/>
     <use xlink:href="#m6d44e0fd5c" x="406.915455" y="201.755745" style="fill: #888888; stroke: #888888"/>
    </g>
   </g>
   <g id="line2d_11">
    <g clip-path="url(#p8fe24e8c83)">
     <use xlink:href="#m6d44e0fd5c" x="72.624545" y="197.909482" style="fill: #888888; stroke: #888888"/>
     <use xlink:href="#m6d44e0fd5c" x="239.77" y="189.576546" style="fill: #888888; stroke: #888888"/>
     <use xlink:href="#m6d44e0fd5c" x="406.915455" y="169.041476" style="fill: #888888; stroke: #888888"/>
    </g>
   </g>
   <g id="LineCollection_2">
    <path d="M 72.624545 199.187433 
L 72.624545 183.394508 
" clip-path="url(#p8fe24e8c83)" style="fill: none; stroke: #348abd; stroke-width: 1.6"/>
    <path d="M 239.77 178.151262 
L 239.77 162.342393 
" clip-path="url(#p8fe24e8c83)" style="fill: none; stroke: #348abd; stroke-width: 1.6"/>
    <path d="M 406.915455 162.226267 
L 406.915455 145.270172 
" clip-path="url(#p8fe24e8c83)" style="fill: none; stroke: #348abd; stroke-width: 1.6"/>
   </g>
   <g id="line2d_12">
    <defs>
     <path id="m4befdfc6ba" d="M 3 0 
L -3 -0 
" style="stroke: #348abd"/>
    </defs>
    <g clip-path="url(#p8fe24e8c83)">
     <use xlink:href="#m4befdfc6ba" x="72.624545" y="199.187433" style="fill: #348abd; stroke: #348abd"/>
     <use xlink:href="#m4befdfc6ba" x="239.77" y="178.151262" style="fill: #348abd; stroke: #348abd"/>
     <use xlink:href="#m4befdfc6ba" x="406.915455" y="162.226267" style="fill: #348abd; stroke: #348abd"/>
    </g>
   </g>
   <g id="line2d_13">
    <g clip-path="url(#p8fe24e8c83)">
     <use xlink:href="#m4befdfc6ba" x="72.624545" y="183.394508" style="fill: #348abd; stroke: #348abd"/>
     <use xlink:href="#m4befdfc6ba" x="239.77" y="162.342393" style="fill: #348abd; stroke: #348abd"/>
     <use xlink:href="#m4befdfc6ba" x="406.915455" y="145.270172" style="fill: #348abd; stroke: #348abd"/>
    </g>
   </g>
   <g id="LineCollection_3">
    <path d="M 72.624545 268.832368 
L 72.624545 250.115617 
" clip-path="url(#p8fe24e8c83)" style="fill: none; stroke: #c00000; stroke-width: 1.6"/>
    <path d="M 239.77 259.201859 
L 239.77 235.727745 
" clip-path="url(#p8fe24e8c83)" style="fill: none; stroke: #c00000; stroke-width: 1.6"/>
    <path d="M 406.915455 266.658062 
L 406.915455 241.515322 
" clip-path="url(#p8fe24e8c83)" style="fill: none; stroke: #c00000; stroke-width: 1.6"/>
   </g>
   <g id="line2d_14">
    <defs>
     <path id="m5c2cd4b895" d="M 3 0 
L -3 -0 
" style="stroke: #c00000"/>
    </defs>
    <g clip-path="url(#p8fe24e8c83)">
     <use xlink:href="#m5c2cd4b895" x="72.624545" y="268.832368" style="fill: #c00000; stroke: #c00000"/>
     <use xlink:href="#m5c2cd4b895" x="239.77" y="259.201859" style="fill: #c00000; stroke: #c00000"/>
     <use xlink:href="#m5c2cd4b895" x="406.915455" y="266.658062" style="fill: #c00000; stroke: #c00000"/>
    </g>
   </g>
   <g id="line2d_15">
    <g clip-path="url(#p8fe24e8c83)">
     <use xlink:href="#m5c2cd4b895" x="72.624545" y="250.115617" style="fill: #c00000; stroke: #c00000"/>
     <use xlink:href="#m5c2cd4b895" x="239.77" y="235.727745" style="fill: #c00000; stroke: #c00000"/>
     <use xlink:href="#m5c2cd4b895" x="406.915455" y="241.515322" style="fill: #c00000; stroke: #c00000"/>
    </g>
   </g>
   <g id="LineCollection_4">
    <path d="M 72.624545 133.104372 
L 72.624545 110.754581 
" clip-path="url(#p8fe24e8c83)" style="fill: none; stroke: #ffb36e; stroke-width: 2.2"/>
    <path d="M 239.77 102.256057 
L 239.77 74.822816 
" clip-path="url(#p8fe24e8c83)" style="fill: none; stroke: #ffb36e; stroke-width: 2.2"/>
    <path d="M 406.915455 80.36898 
L 406.915455 55.407256 
" clip-path="url(#p8fe24e8c83)" style="fill: none; stroke: #ffb36e; stroke-width: 2.2"/>
   </g>
   <g id="line2d_16">
    <defs>
     <path id="meffdf6a94d" d="M 3 0 
L -3 -0 
" style="stroke: #ffb36e"/>
    </defs>
    <g clip-path="url(#p8fe24e8c83)">
     <use xlink:href="#meffdf6a94d" x="72.624545" y="133.104372" style="fill: #ffb36e; stroke: #ffb36e"/>
     <use xlink:href="#meffdf6a94d" x="239.77" y="102.256057" style="fill: #ffb36e; stroke: #ffb36e"/>
     <use xlink:href="#meffdf6a94d" x="406.915455" y="80.36898" style="fill: #ffb36e; stroke: #ffb36e"/>
    </g>
   </g>
   <g id="line2d_17">
    <g clip-path="url(#p8fe24e8c83)">
     <use xlink:href="#meffdf6a94d" x="72.624545" y="110.754581" style="fill: #ffb36e; stroke: #ffb36e"/>
     <use xlink:href="#meffdf6a94d" x="239.77" y="74.822816" style="fill: #ffb36e; stroke: #ffb36e"/>
     <use xlink:href="#meffdf6a94d" x="406.915455" y="55.407256" style="fill: #ffb36e; stroke: #ffb36e"/>
    </g>
   </g>
   <g id="LineCollection_5">
    <path d="M 72.624545 137.589221 
L 72.624545 118.054452 
" clip-path="url(#p8fe24e8c83)" style="fill: none; stroke: #e24a33; stroke-width: 2.2"/>
    <path d="M 239.77 113.599311 
L 239.77 104.333258 
" clip-path="url(#p8fe24e8c83)" style="fill: none; stroke: #e24a33; stroke-width: 2.2"/>
    <path d="M 406.915455 78.934433 
L 406.915455 61.555691 
" clip-path="url(#p8fe24e8c83)" style="fill: none; stroke: #e24a33; stroke-width: 2.2"/>
   </g>
   <g id="line2d_18">
    <defs>
     <path id="mbefff057e3" d="M 3 0 
L -3 -0 
" style="stroke: #e24a33"/>
    </defs>
    <g clip-path="url(#p8fe24e8c83)">
     <use xlink:href="#mbefff057e3" x="72.624545" y="137.589221" style="fill: #e24a33; stroke: #e24a33"/>
     <use xlink:href="#mbefff057e3" x="239.77" y="113.599311" style="fill: #e24a33; stroke: #e24a33"/>
     <use xlink:href="#mbefff057e3" x="406.915455" y="78.934433" style="fill: #e24a33; stroke: #e24a33"/>
    </g>
   </g>
   <g id="line2d_19">
    <g clip-path="url(#p8fe24e8c83)">
     <use xlink:href="#mbefff057e3" x="72.624545" y="118.054452" style="fill: #e24a33; stroke: #e24a33"/>
     <use xlink:href="#mbefff057e3" x="239.77" y="104.333258" style="fill: #e24a33; stroke: #e24a33"/>
     <use xlink:href="#mbefff057e3" x="406.915455" y="61.555691" style="fill: #e24a33; stroke: #e24a33"/>
    </g>
   </g>
   <g id="line2d_20">
    <path d="M 55.91 261.157524 
L 423.63 261.157524 
" clip-path="url(#p8fe24e8c83)" style="fill: none; stroke-dasharray: 1,1.65; stroke-dashoffset: 0; stroke: #000000; stroke-opacity: 0.5"/>
   </g>
   <g id="line2d_21">
    <path d="M 72.624545 208.631344 
L 239.77 200.550393 
L 406.915455 185.39861 
" clip-path="url(#p8fe24e8c83)" style="fill: none; stroke: #888888; stroke-width: 1.6; stroke-linecap: square"/>
    <defs>
     <path id="mc49e2c14fc" d="M 0 3 
C 0.795609 3 1.55874 2.683901 2.12132 2.12132 
C 2.683901 1.55874 3 0.795609 3 0 
C 3 -0.795609 2.683901 -1.55874 2.12132 -2.12132 
C 1.55874 -2.683901 0.795609 -3 0 -3 
C -0.795609 -3 -1.55874 -2.683901 -2.12132 -2.12132 
C -2.683901 -1.55874 -3 -0.795609 -3 0 
C -3 0.795609 -2.683901 1.55874 -2.12132 2.12132 
C -1.55874 2.683901 -0.795609 3 0 3 
z
" style="stroke: #888888"/>
    </defs>
    <g clip-path="url(#p8fe24e8c83)">
     <use xlink:href="#mc49e2c14fc" x="72.624545" y="208.631344" style="fill: #888888; stroke: #888888"/>
     <use xlink:href="#mc49e2c14fc" x="239.77" y="200.550393" style="fill: #888888; stroke: #888888"/>
     <use xlink:href="#mc49e2c14fc" x="406.915455" y="185.39861" style="fill: #888888; stroke: #888888"/>
    </g>
   </g>
   <g id="line2d_22">
    <path d="M 72.624545 191.29097 
L 239.77 170.246828 
L 406.915455 153.74822 
" clip-path="url(#p8fe24e8c83)" style="fill: none; stroke: #348abd; stroke-width: 1.6; stroke-linecap: square"/>
    <defs>
     <path id="m66e8604b91" d="M 0 3 
C 0.795609 3 1.55874 2.683901 2.12132 2.12132 
C 2.683901 1.55874 3 0.795609 3 0 
C 3 -0.795609 2.683901 -1.55874 2.12132 -2.12132 
C 1.55874 -2.683901 0.795609 -3 0 -3 
C -0.795609 -3 -1.55874 -2.683901 -2.12132 -2.12132 
C -2.683901 -1.55874 -3 -0.795609 -3 0 
C -3 0.795609 -2.683901 1.55874 -2.12132 2.12132 
C -1.55874 2.683901 -0.795609 3 0 3 
z
" style="stroke: #348abd"/>
    </defs>
    <g clip-path="url(#p8fe24e8c83)">
     <use xlink:href="#m66e8604b91" x="72.624545" y="191.29097" style="fill: #348abd; stroke: #348abd"/>
     <use xlink:href="#m66e8604b91" x="239.77" y="170.246828" style="fill: #348abd; stroke: #348abd"/>
     <use xlink:href="#m66e8604b91" x="406.915455" y="153.74822" style="fill: #348abd; stroke: #348abd"/>
    </g>
   </g>
   <g id="line2d_23">
    <path d="M 72.624545 259.473993 
L 239.77 247.464802 
L 406.915455 254.086692 
" clip-path="url(#p8fe24e8c83)" style="fill: none; stroke: #c00000; stroke-width: 1.6; stroke-linecap: square"/>
    <defs>
     <path id="m204c74ed70" d="M 0 3 
C 0.795609 3 1.55874 2.683901 2.12132 2.12132 
C 2.683901 1.55874 3 0.795609 3 0 
C 3 -0.795609 2.683901 -1.55874 2.12132 -2.12132 
C 1.55874 -2.683901 0.795609 -3 0 -3 
C -0.795609 -3 -1.55874 -2.683901 -2.12132 -2.12132 
C -2.683901 -1.55874 -3 -0.795609 -3 0 
C -3 0.795609 -2.683901 1.55874 -2.12132 2.12132 
C -1.55874 2.683901 -0.795609 3 0 3 
z
" style="stroke: #c00000"/>
    </defs>
    <g clip-path="url(#p8fe24e8c83)">
     <use xlink:href="#m204c74ed70" x="72.624545" y="259.473993" style="fill: #c00000; stroke: #c00000"/>
     <use xlink:href="#m204c74ed70" x="239.77" y="247.464802" style="fill: #c00000; stroke: #c00000"/>
     <use xlink:href="#m204c74ed70" x="406.915455" y="254.086692" style="fill: #c00000; stroke: #c00000"/>
    </g>
   </g>
   <g id="line2d_24">
    <path d="M 72.624545 121.929476 
L 239.77 88.539436 
L 406.915455 67.888118 
" clip-path="url(#p8fe24e8c83)" style="fill: none; stroke: #ffb36e; stroke-width: 2.2; stroke-linecap: square"/>
    <defs>
     <path id="m17e7e748a5" d="M 0 3 
C 0.795609 3 1.55874 2.683901 2.12132 2.12132 
C 2.683901 1.55874 3 0.795609 3 0 
C 3 -0.795609 2.683901 -1.55874 2.12132 -2.12132 
C 1.55874 -2.683901 0.795609 -3 0 -3 
C -0.795609 -3 -1.55874 -2.683901 -2.12132 -2.12132 
C -2.683901 -1.55874 -3 -0.795609 -3 0 
C -3 0.795609 -2.683901 1.55874 -2.12132 2.12132 
C -1.55874 2.683901 -0.795609 3 0 3 
z
" style="stroke: #ffb36e"/>
    </defs>
    <g clip-path="url(#p8fe24e8c83)">
     <use xlink:href="#m17e7e748a5" x="72.624545" y="121.929476" style="fill: #ffb36e; stroke: #ffb36e"/>
     <use xlink:href="#m17e7e748a5" x="239.77" y="88.539436" style="fill: #ffb36e; stroke: #ffb36e"/>
     <use xlink:href="#m17e7e748a5" x="406.915455" y="67.888118" style="fill: #ffb36e; stroke: #ffb36e"/>
    </g>
   </g>
   <g id="line2d_25">
    <path d="M 72.624545 127.821836 
L 239.77 108.966284 
L 406.915455 70.245062 
" clip-path="url(#p8fe24e8c83)" style="fill: none; stroke: #e24a33; stroke-width: 2.2; stroke-linecap: square"/>
    <defs>
     <path id="m9d9a20a031" d="M 0 3 
C 0.795609 3 1.55874 2.683901 2.12132 2.12132 
C 2.683901 1.55874 3 0.795609 3 0 
C 3 -0.795609 2.683901 -1.55874 2.12132 -2.12132 
C 1.55874 -2.683901 0.795609 -3 0 -3 
C -0.795609 -3 -1.55874 -2.683901 -2.12132 -2.12132 
C -2.683901 -1.55874 -3 -0.795609 -3 0 
C -3 0.795609 -2.683901 1.55874 -2.12132 2.12132 
C -1.55874 2.683901 -0.795609 3 0 3 
z
" style="stroke: #e24a33"/>
    </defs>
    <g clip-path="url(#p8fe24e8c83)">
     <use xlink:href="#m9d9a20a031" x="72.624545" y="127.821836" style="fill: #e24a33; stroke: #e24a33"/>
     <use xlink:href="#m9d9a20a031" x="239.77" y="108.966284" style="fill: #e24a33; stroke: #e24a33"/>
     <use xlink:href="#m9d9a20a031" x="406.915455" y="70.245062" style="fill: #e24a33; stroke: #e24a33"/>
    </g>
   </g>
   <g id="patch_3">
    <path d="M 55.91 279.503624 
L 55.91 44.736 
" style="fill: none; stroke: #000000; stroke-width: 0.8; stroke-linejoin: miter; stroke-linecap: square"/>
   </g>
   <g id="patch_4">
    <path d="M 423.63 279.503624 
L 423.63 44.736 
" style="fill: none; stroke: #000000; stroke-width: 0.8; stroke-linejoin: miter; stroke-linecap: square"/>
   </g>
   <g id="patch_5">
    <path d="M 55.91 279.503624 
L 423.63 279.503624 
" style="fill: none; stroke: #000000; stroke-width: 0.8; stroke-linejoin: miter; stroke-linecap: square"/>
   </g>
   <g id="text_12">
    <!-- chance -->
    <g style="opacity: 0.6" transform="translate(75.967455 258.463874) scale(0.09 -0.09)">
     <defs>
      <path id="DejaVuSans-6e" d="M 3513 2113 
L 3513 0 
L 2938 0 
L 2938 2094 
Q 2938 2591 2744 2837 
Q 2550 3084 2163 3084 
Q 1697 3084 1428 2787 
Q 1159 2491 1159 1978 
L 1159 0 
L 581 0 
L 581 3500 
L 1159 3500 
L 1159 2956 
Q 1366 3272 1645 3428 
Q 1925 3584 2291 3584 
Q 2894 3584 3203 3211 
Q 3513 2838 3513 2113 
z
" transform="scale(0.015625)"/>
     </defs>
     <use xlink:href="#DejaVuSans-63"/>
     <use xlink:href="#DejaVuSans-68" transform="translate(54.980469 0)"/>
     <use xlink:href="#DejaVuSans-61" transform="translate(118.359375 0)"/>
     <use xlink:href="#DejaVuSans-6e" transform="translate(179.638672 0)"/>
     <use xlink:href="#DejaVuSans-63" transform="translate(243.017578 0)"/>
     <use xlink:href="#DejaVuSans-65" transform="translate(297.998047 0)"/>
    </g>
   </g>
   <g id="text_13">
    <!-- Fourier sparsity recovers gates from few rows -->
    <g transform="translate(113.815703 26.418406) scale(0.11 -0.11)">
     <defs>
      <path id="DejaVuSans-46" d="M 628 4666 
L 3309 4666 
L 3309 4134 
L 1259 4134 
L 1259 2759 
L 3109 2759 
L 3109 2228 
L 1259 2228 
L 1259 0 
L 628 0 
L 628 4666 
z
" transform="scale(0.015625)"/>
      <path id="DejaVuSans-69" d="M 603 3500 
L 1178 3500 
L 1178 0 
L 603 0 
L 603 3500 
z
M 603 4863 
L 1178 4863 
L 1178 4134 
L 603 4134 
L 603 4863 
z
" transform="scale(0.015625)"/>
      <path id="DejaVuSans-70" d="M 1159 525 
L 1159 -1331 
L 581 -1331 
L 581 3500 
L 1159 3500 
L 1159 2969 
Q 1341 3281 1617 3432 
Q 1894 3584 2278 3584 
Q 2916 3584 3314 3078 
Q 3713 2572 3713 1747 
Q 3713 922 3314 415 
Q 2916 -91 2278 -91 
Q 1894 -91 1617 61 
Q 1341 213 1159 525 
z
M 3116 1747 
Q 3116 2381 2855 2742 
Q 2594 3103 2138 3103 
Q 1681 3103 1420 2742 
Q 1159 2381 1159 1747 
Q 1159 1113 1420 752 
Q 1681 391 2138 391 
Q 2594 391 2855 752 
Q 3116 1113 3116 1747 
z
" transform="scale(0.015625)"/>
      <path id="DejaVuSans-67" d="M 2906 1791 
Q 2906 2416 2648 2759 
Q 2391 3103 1925 3103 
Q 1463 3103 1205 2759 
Q 947 2416 947 1791 
Q 947 1169 1205 825 
Q 1463 481 1925 481 
Q 2391 481 2648 825 
Q 2906 1169 2906 1791 
z
M 3481 434 
Q 3481 -459 3084 -895 
Q 2688 -1331 1869 -1331 
Q 1566 -1331 1297 -1286 
Q 1028 -1241 775 -1147 
L 775 -588 
Q 1028 -725 1275 -790 
Q 1522 -856 1778 -856 
Q 2344 -856 2625 -561 
Q 2906 -266 2906 331 
L 2906 616 
Q 2728 306 2450 153 
Q 2172 0 1784 0 
Q 1141 0 747 490 
Q 353 981 353 1791 
Q 353 2603 747 3093 
Q 1141 3584 1784 3584 
Q 2172 3584 2450 3431 
Q 2728 3278 2906 2969 
L 2906 3500 
L 3481 3500 
L 3481 434 
z
" transform="scale(0.015625)"/>
     </defs>
     <use xlink:href="#DejaVuSans-46"/>
     <use xlink:href="#DejaVuSans-6f" transform="translate(53.894531 0)"/>
     <use xlink:href="#DejaVuSans-75" transform="translate(115.076172 0)"/>
     <use xlink:href="#DejaVuSans-72" transform="translate(178.455078 0)"/>
     <use xlink:href="#DejaVuSans-69" transform="translate(219.568359 0)"/>
     <use xlink:href="#DejaVuSans-65" transform="translate(247.351562 0)"/>
     <use xlink:href="#DejaVuSans-72" transform="translate(308.875 0)"/>
     <use xlink:href="#DejaVuSans-20" transform="translate(349.988281 0)"/>
     <use xlink:href="#DejaVuSans-73" transform="translate(381.775391 0)"/>
     <use xlink:href="#DejaVuSans-70" transform="translate(433.875 0)"/>
     <use xlink:href="#DejaVuSans-61" transform="translate(497.351562 0)"/>
     <use xlink:href="#DejaVuSans-72" transform="translate(558.630859 0)"/>
     <use xlink:href="#DejaVuSans-73" transform="translate(599.744141 0)"/>
     <use xlink:href="#DejaVuSans-69" transform="translate(651.84375 0)"/>
     <use xlink:href="#DejaVuSans-74" transform="translate(679.626953 0)"/>
     <use xlink:href="#DejaVuSans-79" transform="translate(718.835938 0)"/>
     <use xlink:href="#DejaVuSans-20" transform="translate(778.015625 0)"/>
     <use xlink:href="#DejaVuSans-72" transform="translate(809.802734 0)"/>
     <use xlink:href="#DejaVuSans-65" transform="translate(848.666016 0)"/>
     <use xlink:href="#DejaVuSans-63" transform="translate(910.189453 0)"/>
     <use xlink:href="#DejaVuSans-6f" transform="translate(965.169922 0)"/>
     <use xlink:href="#DejaVuSans-76" transform="translate(1026.351562 0)"/>
     <use xlink:href="#DejaVuSans-65" transform="translate(1085.53125 0)"/>
     <use xlink:href="#DejaVuSans-72" transform="translate(1147.054688 0)"/>
     <use xlink:href="#DejaVuSans-73" transform="translate(1188.167969 0)"/>
     <use xlink:href="#DejaVuSans-20" transform="translate(1240.267578 0)"/>
     <use xlink:href="#DejaVuSans-67" transform="translate(1272.054688 0)"/>
     <use xlink:href="#DejaVuSans-61" transform="translate(1335.53125 0)"/>
     <use xlink:href="#DejaVuSans-74" transform="translate(1396.810547 0)"/>
     <use xlink:href="#DejaVuSans-65" transform="translate(1436.019531 0)"/>
     <use xlink:href="#DejaVuSans-73" transform="translate(1497.542969 0)"/>
     <use xlink:href="#DejaVuSans-20" transform="translate(1549.642578 0)"/>
     <use xlink:href="#DejaVuSans-66" transform="translate(1581.429688 0)"/>
     <use xlink:href="#DejaVuSans-72" transform="translate(1616.634766 0)"/>
     <use xlink:href="#DejaVuSans-6f" transform="translate(1655.498047 0)"/>
     <use xlink:href="#DejaVuSans-6d" transform="translate(1716.679688 0)"/>
     <use xlink:href="#DejaVuSans-20" transform="translate(1814.091797 0)"/>
     <use xlink:href="#DejaVuSans-66" transform="translate(1845.878906 0)"/>
     <use xlink:href="#DejaVuSans-65" transform="translate(1881.083984 0)"/>
     <use xlink:href="#DejaVuSans-77" transform="translate(1942.607422 0)"/>
     <use xlink:href="#DejaVuSans-20" transform="translate(2024.394531 0)"/>
     <use xlink:href="#DejaVuSans-72" transform="translate(2056.181641 0)"/>
     <use xlink:href="#DejaVuSans-6f" transform="translate(2095.044922 0)"/>
     <use xlink:href="#DejaVuSans-77" transform="translate(2156.226562 0)"/>
     <use xlink:href="#DejaVuSans-73" transform="translate(2238.013672 0)"/>
    </g>
    <!-- (and it is SPECIFICALLY spectral: plain ttL1 harms) -->
    <g transform="translate(102.465937 38.736) scale(0.11 -0.11)">
     <defs>
      <path id="DejaVuSans-53" d="M 3425 4513 
L 3425 3897 
Q 3066 4069 2747 4153 
Q 2428 4238 2131 4238 
Q 1616 4238 1336 4038 
Q 1056 3838 1056 3469 
Q 1056 3159 1242 3001 
Q 1428 2844 1947 2747 
L 2328 2669 
Q 3034 2534 3370 2195 
Q 3706 1856 3706 1288 
Q 3706 609 3251 259 
Q 2797 -91 1919 -91 
Q 1588 -91 1214 -16 
Q 841 59 441 206 
L 441 856 
Q 825 641 1194 531 
Q 1563 422 1919 422 
Q 2459 422 2753 634 
Q 3047 847 3047 1241 
Q 3047 1584 2836 1778 
Q 2625 1972 2144 2069 
L 1759 2144 
Q 1053 2284 737 2584 
Q 422 2884 422 3419 
Q 422 4038 858 4394 
Q 1294 4750 2059 4750 
Q 2388 4750 2728 4690 
Q 3069 4631 3425 4513 
z
" transform="scale(0.015625)"/>
      <path id="DejaVuSans-50" d="M 1259 4147 
L 1259 2394 
L 2053 2394 
Q 2494 2394 2734 2622 
Q 2975 2850 2975 3272 
Q 2975 3691 2734 3919 
Q 2494 4147 2053 4147 
L 1259 4147 
z
M 628 4666 
L 2053 4666 
Q 2838 4666 3239 4311 
Q 3641 3956 3641 3272 
Q 3641 2581 3239 2228 
Q 2838 1875 2053 1875 
L 1259 1875 
L 1259 0 
L 628 0 
L 628 4666 
z
" transform="scale(0.015625)"/>
      <path id="DejaVuSans-45" d="M 628 4666 
L 3578 4666 
L 3578 4134 
L 1259 4134 
L 1259 2753 
L 3481 2753 
L 3481 2222 
L 1259 2222 
L 1259 531 
L 3634 531 
L 3634 0 
L 628 0 
L 628 4666 
z
" transform="scale(0.015625)"/>
      <path id="DejaVuSans-43" d="M 4122 4306 
L 4122 3641 
Q 3803 3938 3442 4084 
Q 3081 4231 2675 4231 
Q 1875 4231 1450 3742 
Q 1025 3253 1025 2328 
Q 1025 1406 1450 917 
Q 1875 428 2675 428 
Q 3081 428 3442 575 
Q 3803 722 4122 1019 
L 4122 359 
Q 3791 134 3420 21 
Q 3050 -91 2638 -91 
Q 1578 -91 968 557 
Q 359 1206 359 2328 
Q 359 3453 968 4101 
Q 1578 4750 2638 4750 
Q 3056 4750 3426 4639 
Q 3797 4528 4122 4306 
z
" transform="scale(0.015625)"/>
      <path id="DejaVuSans-49" d="M 628 4666 
L 1259 4666 
L 1259 0 
L 628 0 
L 628 4666 
z
" transform="scale(0.015625)"/>
      <path id="DejaVuSans-41" d="M 2188 4044 
L 1331 1722 
L 3047 1722 
L 2188 4044 
z
M 1831 4666 
L 2547 4666 
L 4325 0 
L 3669 0 
L 3244 1197 
L 1141 1197 
L 716 0 
L 50 0 
L 1831 4666 
z
" transform="scale(0.015625)"/>
      <path id="DejaVuSans-4c" d="M 628 4666 
L 1259 4666 
L 1259 531 
L 3531 531 
L 3531 0 
L 628 0 
L 628 4666 
z
" transform="scale(0.015625)"/>
      <path id="DejaVuSans-59" d="M -13 4666 
L 666 4666 
L 1959 2747 
L 3244 4666 
L 3922 4666 
L 2272 2222 
L 2272 0 
L 1638 0 
L 1638 2222 
L -13 4666 
z
" transform="scale(0.015625)"/>
      <path id="DejaVuSans-3a" d="M 750 794 
L 1409 794 
L 1409 0 
L 750 0 
L 750 794 
z
M 750 3309 
L 1409 3309 
L 1409 2516 
L 750 2516 
L 750 3309 
z
" transform="scale(0.015625)"/>
      <path id="DejaVuSans-31" d="M 794 531 
L 1825 531 
L 1825 4091 
L 703 3866 
L 703 4441 
L 1819 4666 
L 2450 4666 
L 2450 531 
L 3481 531 
L 3481 0 
L 794 0 
L 794 531 
z
" transform="scale(0.015625)"/>
     </defs>
     <use xlink:href="#DejaVuSans-28"/>
     <use xlink:href="#DejaVuSans-61" transform="translate(39.013672 0)"/>
     <use xlink:href="#DejaVuSans-6e" transform="translate(100.292969 0)"/>
     <use xlink:href="#DejaVuSans-64" transform="translate(163.671875 0)"/>
     <use xlink:href="#DejaVuSans-20" transform="translate(227.148438 0)"/>
     <use xlink:href="#DejaVuSans-69" transform="translate(258.935547 0)"/>
     <use xlink:href="#DejaVuSans-74" transform="translate(286.71875 0)"/>
     <use xlink:href="#DejaVuSans-20" transform="translate(325.927734 0)"/>
     <use xlink:href="#DejaVuSans-69" transform="translate(357.714844 0)"/>
     <use xlink:href="#DejaVuSans-73" transform="translate(385.498047 0)"/>
     <use xlink:href="#DejaVuSans-20" transform="translate(437.597656 0)"/>
     <use xlink:href="#DejaVuSans-53" transform="translate(469.384766 0)"/>
     <use xlink:href="#DejaVuSans-50" transform="translate(532.861328 0)"/>
     <use xlink:href="#DejaVuSans-45" transform="translate(593.164062 0)"/>
     <use xlink:href="#DejaVuSans-43" transform="translate(656.347656 0)"/>
     <use xlink:href="#DejaVuSans-49" transform="translate(726.171875 0)"/>
     <use xlink:href="#DejaVuSans-46" transform="translate(755.664062 0)"/>
     <use xlink:href="#DejaVuSans-49" transform="translate(813.183594 0)"/>
     <use xlink:href="#DejaVuSans-43" transform="translate(842.675781 0)"/>
     <use xlink:href="#DejaVuSans-41" transform="translate(912.5 0)"/>
     <use xlink:href="#DejaVuSans-4c" transform="translate(980.908203 0)"/>
     <use xlink:href="#DejaVuSans-4c" transform="translate(1036.621094 0)"/>
     <use xlink:href="#DejaVuSans-59" transform="translate(1079.083984 0)"/>
     <use xlink:href="#DejaVuSans-20" transform="translate(1140.167969 0)"/>
     <use xlink:href="#DejaVuSans-73" transform="translate(1171.955078 0)"/>
     <use xlink:href="#DejaVuSans-70" transform="translate(1224.054688 0)"/>
     <use xlink:href="#DejaVuSans-65" transform="translate(1287.53125 0)"/>
     <use xlink:href="#DejaVuSans-63" transform="translate(1349.054688 0)"/>
     <use xlink:href="#DejaVuSans-74" transform="translate(1404.035156 0)"/>
     <use xlink:href="#DejaVuSans-72" transform="translate(1443.244141 0)"/>
     <use xlink:href="#DejaVuSans-61" transform="translate(1484.357422 0)"/>
     <use xlink:href="#DejaVuSans-6c" transform="translate(1545.636719 0)"/>
     <use xlink:href="#DejaVuSans-3a" transform="translate(1573.419922 0)"/>
     <use xlink:href="#DejaVuSans-20" transform="translate(1607.111328 0)"/>
     <use xlink:href="#DejaVuSans-70" transform="translate(1638.898438 0)"/>
     <use xlink:href="#DejaVuSans-6c" transform="translate(1702.375 0)"/>
     <use xlink:href="#DejaVuSans-61" transform="translate(1730.158203 0)"/>
     <use xlink:href="#DejaVuSans-69" transform="translate(1791.4375 0)"/>
     <use xlink:href="#DejaVuSans-6e" transform="translate(1819.220703 0)"/>
     <use xlink:href="#DejaVuSans-20" transform="translate(1882.599609 0)"/>
     <use xlink:href="#DejaVuSans-74" transform="translate(1914.386719 0)"/>
     <use xlink:href="#DejaVuSans-74" transform="translate(1953.595703 0)"/>
     <use xlink:href="#DejaVuSans-4c" transform="translate(1992.804688 0)"/>
     <use xlink:href="#DejaVuSans-31" transform="translate(2048.517578 0)"/>
     <use xlink:href="#DejaVuSans-20" transform="translate(2112.140625 0)"/>
     <use xlink:href="#DejaVuSans-68" transform="translate(2143.927734 0)"/>
     <use xlink:href="#DejaVuSans-61" transform="translate(2207.306641 0)"/>
     <use xlink:href="#DejaVuSans-72" transform="translate(2268.585938 0)"/>
     <use xlink:href="#DejaVuSans-6d" transform="translate(2307.949219 0)"/>
     <use xlink:href="#DejaVuSans-73" transform="translate(2405.361328 0)"/>
     <use xlink:href="#DejaVuSans-29" transform="translate(2457.460938 0)"/>
    </g>
   </g>
   <g id="legend_1">
    <g id="LineCollection_6">
     <path d="M 72.06 60.119672 
L 72.06 51.619672 
" style="fill: none; stroke: #888888; stroke-width: 1.6"/>
    </g>
    <g id="line2d_26">
     <g>
      <use xlink:href="#m6d44e0fd5c" x="72.06" y="60.119672" style="fill: #888888; stroke: #888888"/>
     </g>
    </g>
    <g id="line2d_27">
     <g>
      <use xlink:href="#m6d44e0fd5c" x="72.06" y="51.619672" style="fill: #888888; stroke: #888888"/>
     </g>
    </g>
    <g id="line2d_28">
     <path d="M 63.56 55.869672 
L 80.56 55.869672 
" style="fill: none; stroke: #888888; stroke-width: 1.6; stroke-linecap: square"/>
    </g>
    <g id="line2d_29">
     <g>
      <use xlink:href="#mc49e2c14fc" x="72.06" y="55.869672" style="fill: #888888; stroke: #888888"/>
     </g>
    </g>
    <g id="text_14">
     <!-- no reg -->
     <g transform="translate(87.36 58.844672) scale(0.085 -0.085)">
      <use xlink:href="#DejaVuSans-6e"/>
      <use xlink:href="#DejaVuSans-6f" transform="translate(63.378906 0)"/>
      <use xlink:href="#DejaVuSans-20" transform="translate(124.560547 0)"/>
      <use xlink:href="#DejaVuSans-72" transform="translate(156.347656 0)"/>
      <use xlink:href="#DejaVuSans-65" transform="translate(195.210938 0)"/>
      <use xlink:href="#DejaVuSans-67" transform="translate(256.734375 0)"/>
     </g>
    </g>
    <g id="LineCollection_7">
     <path d="M 72.06 72.596078 
L 72.06 64.096078 
" style="fill: none; stroke: #348abd; stroke-width: 1.6"/>
    </g>
    <g id="line2d_30">
     <g>
      <use xlink:href="#m4befdfc6ba" x="72.06" y="72.596078" style="fill: #348abd; stroke: #348abd"/>
     </g>
    </g>
    <g id="line2d_31">
     <g>
      <use xlink:href="#m4befdfc6ba" x="72.06" y="64.096078" style="fill: #348abd; stroke: #348abd"/>
     </g>
    </g>
    <g id="line2d_32">
     <path d="M 63.56 68.346078 
L 80.56 68.346078 
" style="fill: none; stroke: #348abd; stroke-width: 1.6; stroke-linecap: square"/>
    </g>
    <g id="line2d_33">
     <g>
      <use xlink:href="#m66e8604b91" x="72.06" y="68.346078" style="fill: #348abd; stroke: #348abd"/>
     </g>
    </g>
    <g id="text_15">
     <!-- L2 (control) -->
     <g transform="translate(87.36 71.321078) scale(0.085 -0.085)">
      <defs>
       <path id="DejaVuSans-32" d="M 1228 531 
L 3431 531 
L 3431 0 
L 469 0 
L 469 531 
Q 828 903 1448 1529 
Q 2069 2156 2228 2338 
Q 2531 2678 2651 2914 
Q 2772 3150 2772 3378 
Q 2772 3750 2511 3984 
Q 2250 4219 1831 4219 
Q 1534 4219 1204 4116 
Q 875 4013 500 3803 
L 500 4441 
Q 881 4594 1212 4672 
Q 1544 4750 1819 4750 
Q 2544 4750 2975 4387 
Q 3406 4025 3406 3419 
Q 3406 3131 3298 2873 
Q 3191 2616 2906 2266 
Q 2828 2175 2409 1742 
Q 1991 1309 1228 531 
z
" transform="scale(0.015625)"/>
      </defs>
      <use xlink:href="#DejaVuSans-4c"/>
      <use xlink:href="#DejaVuSans-32" transform="translate(55.712891 0)"/>
      <use xlink:href="#DejaVuSans-20" transform="translate(119.335938 0)"/>
      <use xlink:href="#DejaVuSans-28" transform="translate(151.123047 0)"/>
      <use xlink:href="#DejaVuSans-63" transform="translate(190.136719 0)"/>
      <use xlink:href="#DejaVuSans-6f" transform="translate(245.117188 0)"/>
      <use xlink:href="#DejaVuSans-6e" transform="translate(306.298828 0)"/>
      <use xlink:href="#DejaVuSans-74" transform="translate(369.677734 0)"/>
      <use xlink:href="#DejaVuSans-72" transform="translate(408.886719 0)"/>
      <use xlink:href="#DejaVuSans-6f" transform="translate(447.75 0)"/>
      <use xlink:href="#DejaVuSans-6c" transform="translate(508.931641 0)"/>
      <use xlink:href="#DejaVuSans-29" transform="translate(536.714844 0)"/>
     </g>
    </g>
    <g id="LineCollection_8">
     <path d="M 72.06 85.072484 
L 72.06 76.572484 
" style="fill: none; stroke: #c00000; stroke-width: 1.6"/>
    </g>
    <g id="line2d_34">
     <g>
      <use xlink:href="#m5c2cd4b895" x="72.06" y="85.072484" style="fill: #c00000; stroke: #c00000"/>
     </g>
    </g>
    <g id="line2d_35">
     <g>
      <use xlink:href="#m5c2cd4b895" x="72.06" y="76.572484" style="fill: #c00000; stroke: #c00000"/>
     </g>
    </g>
    <g id="line2d_36">
     <path d="M 63.56 80.822484 
L 80.56 80.822484 
" style="fill: none; stroke: #c00000; stroke-width: 1.6; stroke-linecap: square"/>
    </g>
    <g id="line2d_37">
     <g>
      <use xlink:href="#m204c74ed70" x="72.06" y="80.822484" style="fill: #c00000; stroke: #c00000"/>
     </g>
    </g>
    <g id="text_16">
     <!-- plain ttL1 (control) -->
     <g transform="translate(87.36 83.797484) scale(0.085 -0.085)">
      <use xlink:href="#DejaVuSans-70"/>
      <use xlink:href="#DejaVuSans-6c" transform="translate(63.476562 0)"/>
      <use xlink:href="#DejaVuSans-61" transform="translate(91.259766 0)"/>
      <use xlink:href="#DejaVuSans-69" transform="translate(152.539062 0)"/>
      <use xlink:href="#DejaVuSans-6e" transform="translate(180.322266 0)"/>
      <use xlink:href="#DejaVuSans-20" transform="translate(243.701172 0)"/>
      <use xlink:href="#DejaVuSans-74" transform="translate(275.488281 0)"/>
      <use xlink:href="#DejaVuSans-74" transform="translate(314.697266 0)"/>
      <use xlink:href="#DejaVuSans-4c" transform="translate(353.90625 0)"/>
      <use xlink:href="#DejaVuSans-31" transform="translate(409.619141 0)"/>
      <use xlink:href="#DejaVuSans-20" transform="translate(473.242188 0)"/>
      <use xlink:href="#DejaVuSans-28" transform="translate(505.029297 0)"/>
      <use xlink:href="#DejaVuSans-63" transform="translate(544.042969 0)"/>
      <use xlink:href="#DejaVuSans-6f" transform="translate(599.023438 0)"/>
      <use xlink:href="#DejaVuSans-6e" transform="translate(660.205078 0)"/>
      <use xlink:href="#DejaVuSans-74" transform="translate(723.583984 0)"/>
      <use xlink:href="#DejaVuSans-72" transform="translate(762.792969 0)"/>
      <use xlink:href="#DejaVuSans-6f" transform="translate(801.65625 0)"/>
      <use xlink:href="#DejaVuSans-6c" transform="translate(862.837891 0)"/>
      <use xlink:href="#DejaVuSans-29" transform="translate(890.621094 0)"/>
     </g>
    </g>
    <g id="LineCollection_9">
     <path d="M 72.06 97.548891 
L 72.06 89.048891 
" style="fill: none; stroke: #ffb36e; stroke-width: 2.2"/>
    </g>
    <g id="line2d_38">
     <g>
      <use xlink:href="#meffdf6a94d" x="72.06" y="97.548891" style="fill: #ffb36e; stroke: #ffb36e"/>
     </g>
    </g>
    <g id="line2d_39">
     <g>
      <use xlink:href="#meffdf6a94d" x="72.06" y="89.048891" style="fill: #ffb36e; stroke: #ffb36e"/>
     </g>
    </g>
    <g id="line2d_40">
     <path d="M 63.56 93.298891 
L 80.56 93.298891 
" style="fill: none; stroke: #ffb36e; stroke-width: 2.2; stroke-linecap: square"/>
    </g>
    <g id="line2d_41">
     <g>
      <use xlink:href="#m17e7e748a5" x="72.06" y="93.298891" style="fill: #ffb36e; stroke: #ffb36e"/>
     </g>
    </g>
    <g id="text_17">
     <!-- raw Fourier L1 -->
     <g transform="translate(87.36 96.273891) scale(0.085 -0.085)">
      <use xlink:href="#DejaVuSans-72"/>
      <use xlink:href="#DejaVuSans-61" transform="translate(41.113281 0)"/>
      <use xlink:href="#DejaVuSans-77" transform="translate(102.392578 0)"/>
      <use xlink:href="#DejaVuSans-20" transform="translate(184.179688 0)"/>
      <use xlink:href="#DejaVuSans-46" transform="translate(215.966797 0)"/>
      <use xlink:href="#DejaVuSans-6f" transform="translate(269.861328 0)"/>
      <use xlink:href="#DejaVuSans-75" transform="translate(331.042969 0)"/>
      <use xlink:href="#DejaVuSans-72" transform="translate(394.421875 0)"/>
      <use xlink:href="#DejaVuSans-69" transform="translate(435.535156 0)"/>
      <use xlink:href="#DejaVuSans-65" transform="translate(463.318359 0)"/>
      <use xlink:href="#DejaVuSans-72" transform="translate(524.841797 0)"/>
      <use xlink:href="#DejaVuSans-20" transform="translate(565.955078 0)"/>
      <use xlink:href="#DejaVuSans-4c" transform="translate(597.742188 0)"/>
      <use xlink:href="#DejaVuSans-31" transform="translate(653.455078 0)"/>
     </g>
    </g>
    <g id="LineCollection_10">
     <path d="M 72.06 110.026625 
L 72.06 101.526625 
" style="fill: none; stroke: #e24a33; stroke-width: 2.2"/>
    </g>
    <g id="line2d_42">
     <g>
      <use xlink:href="#mbefff057e3" x="72.06" y="110.026625" style="fill: #e24a33; stroke: #e24a33"/>
     </g>
    </g>
    <g id="line2d_43">
     <g>
      <use xlink:href="#mbefff057e3" x="72.06" y="101.526625" style="fill: #e24a33; stroke: #e24a33"/>
     </g>
    </g>
    <g id="line2d_44">
     <path d="M 63.56 105.776625 
L 80.56 105.776625 
" style="fill: none; stroke: #e24a33; stroke-width: 2.2; stroke-linecap: square"/>
    </g>
    <g id="line2d_45">
     <g>
      <use xlink:href="#m9d9a20a031" x="72.06" y="105.776625" style="fill: #e24a33; stroke: #e24a33"/>
     </g>
    </g>
    <g id="text_18">
     <!-- corrected R$_F^\star$ (floor) -->
     <g transform="translate(87.36 108.751625) scale(0.085 -0.085)">
      <defs>
       <path id="DejaVuSans-52" d="M 2841 2188 
Q 3044 2119 3236 1894 
Q 3428 1669 3622 1275 
L 4263 0 
L 3584 0 
L 2988 1197 
Q 2756 1666 2539 1819 
Q 2322 1972 1947 1972 
L 1259 1972 
L 1259 0 
L 628 0 
L 628 4666 
L 2053 4666 
Q 2853 4666 3247 4331 
Q 3641 3997 3641 3322 
Q 3641 2881 3436 2590 
Q 3231 2300 2841 2188 
z
M 1259 4147 
L 1259 2491 
L 2053 2491 
Q 2509 2491 2742 2702 
Q 2975 2913 2975 3322 
Q 2975 3731 2742 3939 
Q 2509 4147 2053 4147 
L 1259 4147 
z
" transform="scale(0.015625)"/>
       <path id="DejaVuSans-22c6" d="M 778 2391 
L 1713 2391 
L 2003 3278 
L 2297 2391 
L 3228 2391 
L 2472 1841 
L 2766 953 
L 2003 1503 
L 1244 953 
L 1534 1841 
L 778 2391 
z
" transform="scale(0.015625)"/>
       <path id="DejaVuSans-Oblique-46" d="M 1081 4666 
L 3756 4666 
L 3653 4134 
L 1606 4134 
L 1338 2759 
L 3188 2759 
L 3084 2228 
L 1234 2228 
L 800 0 
L 172 0 
L 1081 4666 
z
" transform="scale(0.015625)"/>
      </defs>
      <use xlink:href="#DejaVuSans-63" transform="translate(0 0.015625)"/>
      <use xlink:href="#DejaVuSans-6f" transform="translate(54.980469 0.015625)"/>
      <use xlink:href="#DejaVuSans-72" transform="translate(116.162109 0.015625)"/>
      <use xlink:href="#DejaVuSans-72" transform="translate(157.275391 0.015625)"/>
      <use xlink:href="#DejaVuSans-65" transform="translate(198.388672 0.015625)"/>
      <use xlink:href="#DejaVuSans-63" transform="translate(259.912109 0.015625)"/>
      <use xlink:href="#DejaVuSans-74" transform="translate(314.892578 0.015625)"/>
      <use xlink:href="#DejaVuSans-65" transform="translate(354.101562 0.015625)"/>
      <use xlink:href="#DejaVuSans-64" transform="translate(415.625 0.015625)"/>
      <use xlink:href="#DejaVuSans-20" transform="translate(479.101562 0.015625)"/>
      <use xlink:href="#DejaVuSans-52" transform="translate(510.888672 0.015625)"/>
      <use xlink:href="#DejaVuSans-22c6" transform="translate(594.96582 38.296875) scale(0.7)"/>
      <use xlink:href="#DejaVuSans-Oblique-46" transform="translate(581.328125 -27.328125) scale(0.7)"/>
      <use xlink:href="#DejaVuSans-20" transform="translate(655.15625 0.015625)"/>
      <use xlink:href="#DejaVuSans-28" transform="translate(686.943359 0.015625)"/>
      <use xlink:href="#DejaVuSans-66" transform="translate(725.957031 0.015625)"/>
      <use xlink:href="#DejaVuSans-6c" transform="translate(761.162109 0.015625)"/>
      <use xlink:href="#DejaVuSans-6f" transform="translate(788.945312 0.015625)"/>
      <use xlink:href="#DejaVuSans-6f" transform="translate(850.126953 0.015625)"/>
      <use xlink:href="#DejaVuSans-72" transform="translate(911.308594 0.015625)"/>
      <use xlink:href="#DejaVuSans-29" transform="translate(952.421875 0.015625)"/>
     </g>
    </g>
   </g>
  </g>
  <g id="axes_2">
   <g id="patch_6">
    <path d="M 483.32 279.503624 
L 851.04 279.503624 
L 851.04 44.736 
L 483.32 44.736 
z
" style="fill: #ffffff"/>
   </g>
   <g id="patch_7">
    <path d="M 500.034545 279.503624 
L 555.749697 279.503624 
L 555.749697 279.503624 
L 500.034545 279.503624 
z
" clip-path="url(#p1bfaf3d008)" style="fill: #888888"/>
   </g>
   <g id="patch_8">
    <path d="M 569.678485 279.503624 
L 625.393636 279.503624 
L 625.393636 279.503624 
L 569.678485 279.503624 
z
" clip-path="url(#p1bfaf3d008)" style="fill: #348abd"/>
   </g>
   <g id="patch_9">
    <path d="M 639.322424 279.503624 
L 695.037576 279.503624 
L 695.037576 66.078511 
L 639.322424 66.078511 
z
" clip-path="url(#p1bfaf3d008)" style="fill: #c00000"/>
   </g>
   <g id="patch_10">
    <path d="M 708.966364 279.503624 
L 764.681515 279.503624 
L 764.681515 278.436498 
L 708.966364 278.436498 
z
" clip-path="url(#p1bfaf3d008)" style="fill: #ffb36e"/>
   </g>
   <g id="patch_11">
    <path d="M 778.610303 279.503624 
L 834.325455 279.503624 
L 834.325455 279.503624 
L 778.610303 279.503624 
z
" clip-path="url(#p1bfaf3d008)" style="fill: #e24a33"/>
   </g>
   <g id="matplotlib.axis_3">
    <g id="xtick_4">
     <g id="line2d_46">
      <g>
       <use xlink:href="#mfd6a90b5c5" x="527.892121" y="279.503624" style="stroke: #000000; stroke-width: 0.8"/>
      </g>
     </g>
     <g id="text_19">
      <!-- no reg -->
      <g transform="translate(500.170308 302.786713) rotate(-20) scale(0.09 -0.09)">
       <use xlink:href="#DejaVuSans-6e"/>
       <use xlink:href="#DejaVuSans-6f" transform="translate(63.378906 0)"/>
       <use xlink:href="#DejaVuSans-20" transform="translate(124.560547 0)"/>
       <use xlink:href="#DejaVuSans-72" transform="translate(156.347656 0)"/>
       <use xlink:href="#DejaVuSans-65" transform="translate(195.210938 0)"/>
       <use xlink:href="#DejaVuSans-67" transform="translate(256.734375 0)"/>
      </g>
     </g>
    </g>
    <g id="xtick_5">
     <g id="line2d_47">
      <g>
       <use xlink:href="#mfd6a90b5c5" x="597.536061" y="279.503624" style="stroke: #000000; stroke-width: 0.8"/>
      </g>
     </g>
     <g id="text_20">
      <!-- L2 -->
      <g transform="translate(586.802715 296.603417) rotate(-20) scale(0.09 -0.09)">
       <use xlink:href="#DejaVuSans-4c"/>
       <use xlink:href="#DejaVuSans-32" transform="translate(55.712891 0)"/>
      </g>
     </g>
    </g>
    <g id="xtick_6">
     <g id="line2d_48">
      <g>
       <use xlink:href="#mfd6a90b5c5" x="667.18" y="279.503624" style="stroke: #000000; stroke-width: 0.8"/>
      </g>
     </g>
     <g id="text_21">
      <!-- plain ttL1 -->
      <g transform="translate(626.517298 307.496812) rotate(-20) scale(0.09 -0.09)">
       <use xlink:href="#DejaVuSans-70"/>
       <use xlink:href="#DejaVuSans-6c" transform="translate(63.476562 0)"/>
       <use xlink:href="#DejaVuSans-61" transform="translate(91.259766 0)"/>
       <use xlink:href="#DejaVuSans-69" transform="translate(152.539062 0)"/>
       <use xlink:href="#DejaVuSans-6e" transform="translate(180.322266 0)"/>
       <use xlink:href="#DejaVuSans-20" transform="translate(243.701172 0)"/>
       <use xlink:href="#DejaVuSans-74" transform="translate(275.488281 0)"/>
       <use xlink:href="#DejaVuSans-74" transform="translate(314.697266 0)"/>
       <use xlink:href="#DejaVuSans-4c" transform="translate(353.90625 0)"/>
       <use xlink:href="#DejaVuSans-31" transform="translate(409.619141 0)"/>
      </g>
     </g>
    </g>
    <g id="xtick_7">
     <g id="line2d_49">
      <g>
       <use xlink:href="#mfd6a90b5c5" x="736.823939" y="279.503624" style="stroke: #000000; stroke-width: 0.8"/>
      </g>
     </g>
     <g id="text_22">
      <!-- raw Fourier L1 -->
      <g transform="translate(675.540123 315.002284) rotate(-20) scale(0.09 -0.09)">
       <use xlink:href="#DejaVuSans-72"/>
       <use xlink:href="#DejaVuSans-61" transform="translate(41.113281 0)"/>
       <use xlink:href="#DejaVuSans-77" transform="translate(102.392578 0)"/>
       <use xlink:href="#DejaVuSans-20" transform="translate(184.179688 0)"/>
       <use xlink:href="#DejaVuSans-46" transform="translate(215.966797 0)"/>
       <use xlink:href="#DejaVuSans-6f" transform="translate(269.861328 0)"/>
       <use xlink:href="#DejaVuSans-75" transform="translate(331.042969 0)"/>
       <use xlink:href="#DejaVuSans-72" transform="translate(394.421875 0)"/>
       <use xlink:href="#DejaVuSans-69" transform="translate(435.535156 0)"/>
       <use xlink:href="#DejaVuSans-65" transform="translate(463.318359 0)"/>
       <use xlink:href="#DejaVuSans-72" transform="translate(524.841797 0)"/>
       <use xlink:href="#DejaVuSans-20" transform="translate(565.955078 0)"/>
       <use xlink:href="#DejaVuSans-4c" transform="translate(597.742188 0)"/>
       <use xlink:href="#DejaVuSans-31" transform="translate(653.455078 0)"/>
      </g>
     </g>
    </g>
    <g id="xtick_8">
     <g id="line2d_50">
      <g>
       <use xlink:href="#mfd6a90b5c5" x="806.467879" y="279.503624" style="stroke: #000000; stroke-width: 0.8"/>
      </g>
     </g>
     <g id="text_23">
      <!-- corrected R$_F^\star$ -->
      <g transform="translate(750.126536 313.123991) rotate(-20) scale(0.09 -0.09)">
       <use xlink:href="#DejaVuSans-63" transform="translate(0 0.015625)"/>
       <use xlink:href="#DejaVuSans-6f" transform="translate(54.980469 0.015625)"/>
       <use xlink:href="#DejaVuSans-72" transform="translate(116.162109 0.015625)"/>
       <use xlink:href="#DejaVuSans-72" transform="translate(157.275391 0.015625)"/>
       <use xlink:href="#DejaVuSans-65" transform="translate(198.388672 0.015625)"/>
       <use xlink:href="#DejaVuSans-63" transform="translate(259.912109 0.015625)"/>
       <use xlink:href="#DejaVuSans-74" transform="translate(314.892578 0.015625)"/>
       <use xlink:href="#DejaVuSans-65" transform="translate(354.101562 0.015625)"/>
       <use xlink:href="#DejaVuSans-64" transform="translate(415.625 0.015625)"/>
       <use xlink:href="#DejaVuSans-20" transform="translate(479.101562 0.015625)"/>
       <use xlink:href="#DejaVuSans-52" transform="translate(510.888672 0.015625)"/>
       <use xlink:href="#DejaVuSans-22c6" transform="translate(594.96582 38.296875) scale(0.7)"/>
       <use xlink:href="#DejaVuSans-Oblique-46" transform="translate(581.328125 -27.328125) scale(0.7)"/>
      </g>
     </g>
    </g>
   </g>
   <g id="matplotlib.axis_4">
    <g id="ytick_7">
     <g id="line2d_51">
      <g>
       <use xlink:href="#m52a121a455" x="483.32" y="279.503624" style="stroke: #000000; stroke-width: 0.8"/>
      </g>
     </g>
     <g id="text_24">
      <!-- 0 -->
      <g transform="translate(468.685 284.062686) scale(0.12 -0.12)">
       <use xlink:href="#DejaVuSans-30"/>
      </g>
     </g>
    </g>
    <g id="ytick_8">
     <g id="line2d_52">
      <g>
       <use xlink:href="#m52a121a455" x="483.32" y="236.818601" style="stroke: #000000; stroke-width: 0.8"/>
      </g>
     </g>
     <g id="text_25">
      <!-- 20 -->
      <g transform="translate(461.05 241.377664) scale(0.12 -0.12)">
       <use xlink:href="#DejaVuSans-32"/>
       <use xlink:href="#DejaVuSans-30" transform="translate(63.623047 0)"/>
      </g>
     </g>
    </g>
    <g id="ytick_9">
     <g id="line2d_53">
      <g>
       <use xlink:href="#m52a121a455" x="483.32" y="194.133579" style="stroke: #000000; stroke-width: 0.8"/>
      </g>
     </g>
     <g id="text_26">
      <!-- 40 -->
      <g transform="translate(461.05 198.692641) scale(0.12 -0.12)">
       <use xlink:href="#DejaVuSans-34"/>
       <use xlink:href="#DejaVuSans-30" transform="translate(63.623047 0)"/>
      </g>
     </g>
    </g>
    <g id="ytick_10">
     <g id="line2d_54">
      <g>
       <use xlink:href="#m52a121a455" x="483.32" y="151.448556" style="stroke: #000000; stroke-width: 0.8"/>
      </g>
     </g>
     <g id="text_27">
      <!-- 60 -->
      <g transform="translate(461.05 156.007619) scale(0.12 -0.12)">
       <use xlink:href="#DejaVuSans-36"/>
       <use xlink:href="#DejaVuSans-30" transform="translate(63.623047 0)"/>
      </g>
     </g>
    </g>
    <g id="ytick_11">
     <g id="line2d_55">
      <g>
       <use xlink:href="#m52a121a455" x="483.32" y="108.763534" style="stroke: #000000; stroke-width: 0.8"/>
      </g>
     </g>
     <g id="text_28">
      <!-- 80 -->
      <g transform="translate(461.05 113.322596) scale(0.12 -0.12)">
       <use xlink:href="#DejaVuSans-38"/>
       <use xlink:href="#DejaVuSans-30" transform="translate(63.623047 0)"/>
      </g>
     </g>
    </g>
    <g id="ytick_12">
     <g id="line2d_56">
      <g>
       <use xlink:href="#m52a121a455" x="483.32" y="66.078511" style="stroke: #000000; stroke-width: 0.8"/>
      </g>
     </g>
     <g id="text_29">
      <!-- 100 -->
      <g transform="translate(453.415 70.637574) scale(0.12 -0.12)">
       <use xlink:href="#DejaVuSans-31"/>
       <use xlink:href="#DejaVuSans-30" transform="translate(63.623047 0)"/>
       <use xlink:href="#DejaVuSans-30" transform="translate(127.246094 0)"/>
      </g>
     </g>
    </g>
    <g id="text_30">
     <!-- % neurons collapsed to dead/constant -->
     <g transform="translate(446.919375 277.206374) rotate(-90) scale(0.12 -0.12)">
      <defs>
       <path id="DejaVuSans-25" d="M 4653 2053 
Q 4381 2053 4226 1822 
Q 4072 1591 4072 1178 
Q 4072 772 4226 539 
Q 4381 306 4653 306 
Q 4919 306 5073 539 
Q 5228 772 5228 1178 
Q 5228 1588 5073 1820 
Q 4919 2053 4653 2053 
z
M 4653 2450 
Q 5147 2450 5437 2106 
Q 5728 1763 5728 1178 
Q 5728 594 5436 251 
Q 5144 -91 4653 -91 
Q 4153 -91 3862 251 
Q 3572 594 3572 1178 
Q 3572 1766 3864 2108 
Q 4156 2450 4653 2450 
z
M 1428 4353 
Q 1159 4353 1004 4120 
Q 850 3888 850 3481 
Q 850 3069 1003 2837 
Q 1156 2606 1428 2606 
Q 1700 2606 1854 2837 
Q 2009 3069 2009 3481 
Q 2009 3884 1853 4118 
Q 1697 4353 1428 4353 
z
M 4250 4750 
L 4750 4750 
L 1831 -91 
L 1331 -91 
L 4250 4750 
z
M 1428 4750 
Q 1922 4750 2215 4408 
Q 2509 4066 2509 3481 
Q 2509 2891 2217 2550 
Q 1925 2209 1428 2209 
Q 931 2209 642 2551 
Q 353 2894 353 3481 
Q 353 4063 643 4406 
Q 934 4750 1428 4750 
z
" transform="scale(0.015625)"/>
       <path id="DejaVuSans-2f" d="M 1625 4666 
L 2156 4666 
L 531 -594 
L 0 -594 
L 1625 4666 
z
" transform="scale(0.015625)"/>
      </defs>
      <use xlink:href="#DejaVuSans-25"/>
      <use xlink:href="#DejaVuSans-20" transform="translate(95.019531 0)"/>
      <use xlink:href="#DejaVuSans-6e" transform="translate(126.806641 0)"/>
      <use xlink:href="#DejaVuSans-65" transform="translate(190.185547 0)"/>
      <use xlink:href="#DejaVuSans-75" transform="translate(251.708984 0)"/>
      <use xlink:href="#DejaVuSans-72" transform="translate(315.087891 0)"/>
      <use xlink:href="#DejaVuSans-6f" transform="translate(353.951172 0)"/>
      <use xlink:href="#DejaVuSans-6e" transform="translate(415.132812 0)"/>
      <use xlink:href="#DejaVuSans-73" transform="translate(478.511719 0)"/>
      <use xlink:href="#DejaVuSans-20" transform="translate(530.611328 0)"/>
      <use xlink:href="#DejaVuSans-63" transform="translate(562.398438 0)"/>
      <use xlink:href="#DejaVuSans-6f" transform="translate(617.378906 0)"/>
      <use xlink:href="#DejaVuSans-6c" transform="translate(678.560547 0)"/>
      <use xlink:href="#DejaVuSans-6c" transform="translate(706.34375 0)"/>
      <use xlink:href="#DejaVuSans-61" transform="translate(734.126953 0)"/>
      <use xlink:href="#DejaVuSans-70" transform="translate(795.40625 0)"/>
      <use xlink:href="#DejaVuSans-73" transform="translate(858.882812 0)"/>
      <use xlink:href="#DejaVuSans-65" transform="translate(910.982422 0)"/>
      <use xlink:href="#DejaVuSans-64" transform="translate(972.505859 0)"/>
      <use xlink:href="#DejaVuSans-20" transform="translate(1035.982422 0)"/>
      <use xlink:href="#DejaVuSans-74" transform="translate(1067.769531 0)"/>
      <use xlink:href="#DejaVuSans-6f" transform="translate(1106.978516 0)"/>
      <use xlink:href="#DejaVuSans-20" transform="translate(1168.160156 0)"/>
      <use xlink:href="#DejaVuSans-64" transform="translate(1199.947266 0)"/>
      <use xlink:href="#DejaVuSans-65" transform="translate(1263.423828 0)"/>
      <use xlink:href="#DejaVuSans-61" transform="translate(1324.947266 0)"/>
      <use xlink:href="#DejaVuSans-64" transform="translate(1386.226562 0)"/>
      <use xlink:href="#DejaVuSans-2f" transform="translate(1449.703125 0)"/>
      <use xlink:href="#DejaVuSans-63" transform="translate(1483.394531 0)"/>
      <use xlink:href="#DejaVuSans-6f" transform="translate(1538.375 0)"/>
      <use xlink:href="#DejaVuSans-6e" transform="translate(1599.556641 0)"/>
      <use xlink:href="#DejaVuSans-73" transform="translate(1662.935547 0)"/>
      <use xlink:href="#DejaVuSans-74" transform="translate(1715.035156 0)"/>
      <use xlink:href="#DejaVuSans-61" transform="translate(1754.244141 0)"/>
      <use xlink:href="#DejaVuSans-6e" transform="translate(1815.523438 0)"/>
      <use xlink:href="#DejaVuSans-74" transform="translate(1878.902344 0)"/>
     </g>
    </g>
   </g>
   <g id="patch_12">
    <path d="M 483.32 279.503624 
L 483.32 44.736 
" style="fill: none; stroke: #000000; stroke-width: 0.8; stroke-linejoin: miter; stroke-linecap: square"/>
   </g>
   <g id="patch_13">
    <path d="M 851.04 279.503624 
L 851.04 44.736 
" style="fill: none; stroke: #000000; stroke-width: 0.8; stroke-linejoin: miter; stroke-linecap: square"/>
   </g>
   <g id="patch_14">
    <path d="M 483.32 279.503624 
L 851.04 279.503624 
" style="fill: none; stroke: #000000; stroke-width: 0.8; stroke-linejoin: miter; stroke-linecap: square"/>
   </g>
   <g id="text_31">
    <!-- ncE=1.36 -->
    <g style="fill: #333333" transform="translate(507.152121 275.235122) scale(0.085 -0.085)">
     <defs>
      <path id="DejaVuSans-3d" d="M 678 2906 
L 4684 2906 
L 4684 2381 
L 678 2381 
L 678 2906 
z
M 678 1631 
L 4684 1631 
L 4684 1100 
L 678 1100 
L 678 1631 
z
" transform="scale(0.015625)"/>
     </defs>
     <use xlink:href="#DejaVuSans-6e"/>
     <use xlink:href="#DejaVuSans-63" transform="translate(63.378906 0)"/>
     <use xlink:href="#DejaVuSans-45" transform="translate(118.359375 0)"/>
     <use xlink:href="#DejaVuSans-3d" transform="translate(181.542969 0)"/>
     <use xlink:href="#DejaVuSans-31" transform="translate(265.332031 0)"/>
     <use xlink:href="#DejaVuSans-2e" transform="translate(328.955078 0)"/>
     <use xlink:href="#DejaVuSans-33" transform="translate(360.742188 0)"/>
     <use xlink:href="#DejaVuSans-36" transform="translate(424.365234 0)"/>
    </g>
   </g>
   <g id="text_32">
    <!-- ncE=0.18 -->
    <g style="fill: #333333" transform="translate(576.796061 275.235122) scale(0.085 -0.085)">
     <use xlink:href="#DejaVuSans-6e"/>
     <use xlink:href="#DejaVuSans-63" transform="translate(63.378906 0)"/>
     <use xlink:href="#DejaVuSans-45" transform="translate(118.359375 0)"/>
     <use xlink:href="#DejaVuSans-3d" transform="translate(181.542969 0)"/>
     <use xlink:href="#DejaVuSans-30" transform="translate(265.332031 0)"/>
     <use xlink:href="#DejaVuSans-2e" transform="translate(328.955078 0)"/>
     <use xlink:href="#DejaVuSans-31" transform="translate(360.742188 0)"/>
     <use xlink:href="#DejaVuSans-38" transform="translate(424.365234 0)"/>
    </g>
   </g>
   <g id="text_33">
    <!-- ncE=0.00 -->
    <g style="fill: #c00000" transform="translate(646.44 61.810009) scale(0.085 -0.085)">
     <use xlink:href="#DejaVuSans-6e"/>
     <use xlink:href="#DejaVuSans-63" transform="translate(63.378906 0)"/>
     <use xlink:href="#DejaVuSans-45" transform="translate(118.359375 0)"/>
     <use xlink:href="#DejaVuSans-3d" transform="translate(181.542969 0)"/>
     <use xlink:href="#DejaVuSans-30" transform="translate(265.332031 0)"/>
     <use xlink:href="#DejaVuSans-2e" transform="translate(328.955078 0)"/>
     <use xlink:href="#DejaVuSans-30" transform="translate(360.742188 0)"/>
     <use xlink:href="#DejaVuSans-30" transform="translate(424.365234 0)"/>
    </g>
   </g>
   <g id="text_34">
    <!-- ncE=0.26 -->
    <g style="fill: #333333" transform="translate(716.083939 274.167996) scale(0.085 -0.085)">
     <use xlink:href="#DejaVuSans-6e"/>
     <use xlink:href="#DejaVuSans-63" transform="translate(63.378906 0)"/>
     <use xlink:href="#DejaVuSans-45" transform="translate(118.359375 0)"/>
     <use xlink:href="#DejaVuSans-3d" transform="translate(181.542969 0)"/>
     <use xlink:href="#DejaVuSans-30" transform="translate(265.332031 0)"/>
     <use xlink:href="#DejaVuSans-2e" transform="translate(328.955078 0)"/>
     <use xlink:href="#DejaVuSans-32" transform="translate(360.742188 0)"/>
     <use xlink:href="#DejaVuSans-36" transform="translate(424.365234 0)"/>
    </g>
   </g>
   <g id="text_35">
    <!-- ncE=0.39 -->
    <g style="fill: #333333" transform="translate(785.727879 275.235122) scale(0.085 -0.085)">
     <use xlink:href="#DejaVuSans-6e"/>
     <use xlink:href="#DejaVuSans-63" transform="translate(63.378906 0)"/>
     <use xlink:href="#DejaVuSans-45" transform="translate(118.359375 0)"/>
     <use xlink:href="#DejaVuSans-3d" transform="translate(181.542969 0)"/>
     <use xlink:href="#DejaVuSans-30" transform="translate(265.332031 0)"/>
     <use xlink:href="#DejaVuSans-2e" transform="translate(328.955078 0)"/>
     <use xlink:href="#DejaVuSans-33" transform="translate(360.742188 0)"/>
     <use xlink:href="#DejaVuSans-39" transform="translate(424.365234 0)"/>
    </g>
   </g>
   <g id="text_36">
    <!-- Collapse-immunity at high $\beta$ -->
    <g transform="translate(589.355 26.394) scale(0.11 -0.11)">
     <defs>
      <path id="DejaVuSans-Oblique-3b2" d="M 872 216 
L 572 -1331 
L -6 -1331 
L 928 3478 
Q 1206 4903 2538 4903 
Q 3888 4903 3659 3700 
Q 3503 2844 2894 2531 
Q 3713 2250 3553 1416 
Q 3272 -69 1759 -66 
Q 1097 -63 872 216 
z
M 1019 966 
Q 1259 422 1875 425 
Q 2775 425 2966 1406 
Q 3138 2288 1675 2219 
L 1778 2750 
Q 2909 2731 3106 3750 
Q 3241 4438 2509 4434 
Q 1691 4434 1503 3459 
L 1019 966 
z
" transform="scale(0.015625)"/>
     </defs>
     <use xlink:href="#DejaVuSans-43" transform="translate(0 0.390625)"/>
     <use xlink:href="#DejaVuSans-6f" transform="translate(69.824219 0.390625)"/>
     <use xlink:href="#DejaVuSans-6c" transform="translate(131.005859 0.390625)"/>
     <use xlink:href="#DejaVuSans-6c" transform="translate(158.789062 0.390625)"/>
     <use xlink:href="#DejaVuSans-61" transform="translate(186.572266 0.390625)"/>
     <use xlink:href="#DejaVuSans-70" transform="translate(247.851562 0.390625)"/>
     <use xlink:href="#DejaVuSans-73" transform="translate(311.328125 0.390625)"/>
     <use xlink:href="#DejaVuSans-65" transform="translate(363.427734 0.390625)"/>
     <use xlink:href="#DejaVuSans-2d" transform="translate(424.951172 0.390625)"/>
     <use xlink:href="#DejaVuSans-69" transform="translate(461.035156 0.390625)"/>
     <use xlink:href="#DejaVuSans-6d" transform="translate(488.818359 0.390625)"/>
     <use xlink:href="#DejaVuSans-6d" transform="translate(586.230469 0.390625)"/>
     <use xlink:href="#DejaVuSans-75" transform="translate(683.642578 0.390625)"/>
     <use xlink:href="#DejaVuSans-6e" transform="translate(747.021484 0.390625)"/>
     <use xlink:href="#DejaVuSans-69" transform="translate(810.400391 0.390625)"/>
     <use xlink:href="#DejaVuSans-74" transform="translate(838.183594 0.390625)"/>
     <use xlink:href="#DejaVuSans-79" transform="translate(877.392578 0.390625)"/>
     <use xlink:href="#DejaVuSans-20" transform="translate(936.572266 0.390625)"/>
     <use xlink:href="#DejaVuSans-61" transform="translate(968.359375 0.390625)"/>
     <use xlink:href="#DejaVuSans-74" transform="translate(1029.638672 0.390625)"/>
     <use xlink:href="#DejaVuSans-20" transform="translate(1068.847656 0.390625)"/>
     <use xlink:href="#DejaVuSans-68" transform="translate(1100.634766 0.390625)"/>
     <use xlink:href="#DejaVuSans-69" transform="translate(1164.013672 0.390625)"/>
     <use xlink:href="#DejaVuSans-67" transform="translate(1191.796875 0.390625)"/>
     <use xlink:href="#DejaVuSans-68" transform="translate(1255.273438 0.390625)"/>
     <use xlink:href="#DejaVuSans-20" transform="translate(1318.652344 0.390625)"/>
     <use xlink:href="#DejaVuSans-Oblique-3b2" transform="translate(1350.439453 0.390625)"/>
    </g>
    <!-- plain ttL1 → 100% dead; corrected R$_F^\star$ holds (floor) -->
    <g transform="translate(527.205 38.736) scale(0.11 -0.11)">
     <defs>
      <path id="DejaVuSans-2192" d="M 5050 2147 
L 5050 1866 
L 3822 638 
L 3447 1013 
L 4175 1741 
L 366 1741 
L 366 2272 
L 4175 2272 
L 3447 3000 
L 3822 3375 
L 5050 2147 
z
" transform="scale(0.015625)"/>
      <path id="DejaVuSans-3b" d="M 750 3309 
L 1409 3309 
L 1409 2516 
L 750 2516 
L 750 3309 
z
M 750 794 
L 1409 794 
L 1409 256 
L 897 -744 
L 494 -744 
L 750 256 
L 750 794 
z
" transform="scale(0.015625)"/>
     </defs>
     <use xlink:href="#DejaVuSans-70" transform="translate(0 0.015625)"/>
     <use xlink:href="#DejaVuSans-6c" transform="translate(63.476562 0.015625)"/>
     <use xlink:href="#DejaVuSans-61" transform="translate(91.259766 0.015625)"/>
     <use xlink:href="#DejaVuSans-69" transform="translate(152.539062 0.015625)"/>
     <use xlink:href="#DejaVuSans-6e" transform="translate(180.322266 0.015625)"/>
     <use xlink:href="#DejaVuSans-20" transform="translate(243.701172 0.015625)"/>
     <use xlink:href="#DejaVuSans-74" transform="translate(275.488281 0.015625)"/>
     <use xlink:href="#DejaVuSans-74" transform="translate(314.697266 0.015625)"/>
     <use xlink:href="#DejaVuSans-4c" transform="translate(353.90625 0.015625)"/>
     <use xlink:href="#DejaVuSans-31" transform="translate(409.619141 0.015625)"/>
     <use xlink:href="#DejaVuSans-20" transform="translate(473.242188 0.015625)"/>
     <use xlink:href="#DejaVuSans-2192" transform="translate(505.029297 0.015625)"/>
     <use xlink:href="#DejaVuSans-20" transform="translate(588.818359 0.015625)"/>
     <use xlink:href="#DejaVuSans-31" transform="translate(620.605469 0.015625)"/>
     <use xlink:href="#DejaVuSans-30" transform="translate(684.228516 0.015625)"/>
     <use xlink:href="#DejaVuSans-30" transform="translate(747.851562 0.015625)"/>
     <use xlink:href="#DejaVuSans-25" transform="translate(811.474609 0.015625)"/>
     <use xlink:href="#DejaVuSans-20" transform="translate(906.494141 0.015625)"/>
     <use xlink:href="#DejaVuSans-64" transform="translate(938.28125 0.015625)"/>
     <use xlink:href="#DejaVuSans-65" transform="translate(1001.757812 0.015625)"/>
     <use xlink:href="#DejaVuSans-61" transform="translate(1063.28125 0.015625)"/>
     <use xlink:href="#DejaVuSans-64" transform="translate(1124.560547 0.015625)"/>
     <use xlink:href="#DejaVuSans-3b" transform="translate(1188.037109 0.015625)"/>
     <use xlink:href="#DejaVuSans-20" transform="translate(1221.728516 0.015625)"/>
     <use xlink:href="#DejaVuSans-63" transform="translate(1253.515625 0.015625)"/>
     <use xlink:href="#DejaVuSans-6f" transform="translate(1308.496094 0.015625)"/>
     <use xlink:href="#DejaVuSans-72" transform="translate(1369.677734 0.015625)"/>
     <use xlink:href="#DejaVuSans-72" transform="translate(1410.791016 0.015625)"/>
     <use xlink:href="#DejaVuSans-65" transform="translate(1451.904297 0.015625)"/>
     <use xlink:href="#DejaVuSans-63" transform="translate(1513.427734 0.015625)"/>
     <use xlink:href="#DejaVuSans-74" transform="translate(1568.408203 0.015625)"/>
     <use xlink:href="#DejaVuSans-65" transform="translate(1607.617188 0.015625)"/>
     <use xlink:href="#DejaVuSans-64" transform="translate(1669.140625 0.015625)"/>
     <use xlink:href="#DejaVuSans-20" transform="translate(1732.617188 0.015625)"/>
     <use xlink:href="#DejaVuSans-52" transform="translate(1764.404297 0.015625)"/>
     <use xlink:href="#DejaVuSans-22c6" transform="translate(1848.481445 38.296875) scale(0.7)"/>
     <use xlink:href="#DejaVuSans-Oblique-46" transform="translate(1834.84375 -27.328125) scale(0.7)"/>
     <use xlink:href="#DejaVuSans-20" transform="translate(1908.671875 0.015625)"/>
     <use xlink:href="#DejaVuSans-68" transform="translate(1940.458984 0.015625)"/>
     <use xlink:href="#DejaVuSans-6f" transform="translate(2003.837891 0.015625)"/>
     <use xlink:href="#DejaVuSans-6c" transform="translate(2065.019531 0.015625)"/>
     <use xlink:href="#DejaVuSans-64" transform="translate(2092.802734 0.015625)"/>
     <use xlink:href="#DejaVuSans-73" transform="translate(2156.279297 0.015625)"/>
     <use xlink:href="#DejaVuSans-20" transform="translate(2208.378906 0.015625)"/>
     <use xlink:href="#DejaVuSans-28" transform="translate(2240.166016 0.015625)"/>
     <use xlink:href="#DejaVuSans-66" transform="translate(2279.179688 0.015625)"/>
     <use xlink:href="#DejaVuSans-6c" transform="translate(2314.384766 0.015625)"/>
     <use xlink:href="#DejaVuSans-6f" transform="translate(2342.167969 0.015625)"/>
     <use xlink:href="#DejaVuSans-6f" transform="translate(2403.349609 0.015625)"/>
     <use xlink:href="#DejaVuSans-72" transform="translate(2464.53125 0.015625)"/>
     <use xlink:href="#DejaVuSans-29" transform="translate(2505.644531 0.015625)"/>
    </g>
   </g>
  </g>
 </g>
 <defs>
  <clipPath id="p8fe24e8c83">
   <rect x="55.91" y="44.736" width="367.72" height="234.767624"/>
  </clipPath>
  <clipPath id="p1bfaf3d008">
   <rect x="483.32" y="44.736" width="367.72" height="234.767624"/>
  </clipPath>
 </defs>
</svg>
